<svg width="33" height="21" viewBox="0 0 33 21" fill="none" xmlns="http://www.w3.org/2000/svg">
<path d="M16.7934 18.4777L16.4926 18.7042L16.1918 18.4777L1.85539 7.68135C1.53829 7.45315 0.99807 7.45384 0.68227 7.6835C0.536125 7.78979 0.502064 7.89621 0.500546 7.96189C0.499062 8.02609 0.526722 8.12849 0.661465 8.2347L15.8956 19.7071C16.0426 19.8177 16.2569 19.8865 16.4926 19.8865C16.7282 19.8865 16.9425 19.8178 17.0896 19.7071C17.0896 19.7071 17.0896 19.7071 17.0896 19.7071L32.3274 8.23192C32.469 8.12524 32.5 8.02035 32.5 7.95523C32.5 7.89011 32.469 7.78519 32.3274 7.67848C32.1804 7.56783 31.9661 7.49913 31.7305 7.49913C31.4948 7.49913 31.2805 7.56785 31.1335 7.67854C31.1335 7.67855 31.1335 7.67856 31.1335 7.67857L16.7934 18.4777Z" fill="#909198" stroke="#E5E9EB"/>
<path d="M16.7934 11.4787L16.4926 11.7052L16.1918 11.4787L1.85539 0.682331C1.53829 0.45413 0.99807 0.454815 0.68227 0.684472C0.536125 0.790764 0.502064 0.897188 0.500546 0.962862C0.499062 1.02707 0.526722 1.12946 0.661465 1.23568L15.8956 12.708C16.0426 12.8187 16.2569 12.8875 16.4926 12.8875C16.7282 12.8875 16.9425 12.8187 17.0896 12.7081C17.0896 12.7081 17.0896 12.7081 17.0896 12.708L32.3274 1.23289C32.469 1.12622 32.5 1.02132 32.5 0.956206C32.5 0.891082 32.469 0.786165 32.3274 0.679455C32.1804 0.568805 31.9661 0.500107 31.7305 0.500107C31.4948 0.500107 31.2805 0.568831 31.1335 0.67952C31.1335 0.679527 31.1335 0.679534 31.1335 0.679542L16.7934 11.4787Z" fill="#909198" stroke="#E5E9EB"/>
</svg>
