<svg width="25" height="25" viewBox="0 0 25 25" fill="none" xmlns="http://www.w3.org/2000/svg">
<path d="M12.1171 16.7589C11.4023 16.7589 10.8236 17.3546 10.8236 18.0694C10.8236 18.7672 11.3853 19.3799 12.1171 19.3799C12.8489 19.3799 13.4276 18.7672 13.4276 18.0694C13.4276 17.3546 12.832 16.7589 12.1171 16.7589Z" fill="#FAFAFA"/>
<path d="M12.3384 6.83606C10.0407 6.83606 8.98545 8.19763 8.98545 9.11672C8.98545 9.78054 9.54707 10.0869 10.0066 10.0869C10.9257 10.0869 10.5513 8.77634 12.2873 8.77634C13.1383 8.77634 13.8191 9.1508 13.8191 9.93371C13.8191 10.8528 12.866 11.3804 12.3043 11.857C11.8108 12.2825 11.164 12.9803 11.164 14.4441C11.164 15.3291 11.4022 15.5844 12.1001 15.5844C12.9341 15.5844 13.1042 15.21 13.1042 14.8866C13.1042 14.0015 13.1213 13.4909 14.0574 12.7591C14.5169 12.4017 15.9637 11.2443 15.9637 9.6444C15.9637 8.0445 14.5169 6.83606 12.3384 6.83606Z" fill="#FAFAFA"/>
<path d="M12.5 0C5.5916 0 0 5.59067 0 12.5V24.0234C0 24.5628 0.437207 25 0.976562 25H12.5C19.4083 25 25 19.4093 25 12.5C25 5.5916 19.4093 0 12.5 0ZM12.5 23.0469H1.95312V12.5C1.95312 6.67104 6.67026 1.95312 12.5 1.95312C18.329 1.95312 23.0469 6.67026 23.0469 12.5C23.0469 18.329 18.3297 23.0469 12.5 23.0469Z" fill="#FAFAFA"/>
</svg>
