<svg width="14" height="14" viewBox="0 0 14 14" xmlns="http://www.w3.org/2000/svg">
<path d="M8.28261 6.98253L13.7339 1.54462C14.0887 1.1909 14.0887 0.618998 13.7339 0.265285C13.3793 -0.0884283 12.806 -0.0884283 12.4514 0.265285L6.99992 5.70319L1.5486 0.265285C1.19384 -0.0884283 0.620668 -0.0884283 0.266072 0.265285C-0.0886906 0.618998 -0.0886906 1.1909 0.266072 1.54462L5.71739 6.98253L0.266072 12.4204C-0.0886906 12.7741 -0.0886906 13.3461 0.266072 13.6998C0.442789 13.8762 0.675145 13.9648 0.907335 13.9648C1.13953 13.9648 1.37172 13.8762 1.5486 13.6998L6.99992 8.26186L12.4514 13.6998C12.6283 13.8762 12.8605 13.9648 13.0927 13.9648C13.3249 13.9648 13.557 13.8762 13.7339 13.6998C14.0887 13.3461 14.0887 12.7741 13.7339 12.4204L8.28261 6.98253Z"/>
</svg>
