<svg width="12" height="12" viewBox="0 0 12 12" fill="none" xmlns="http://www.w3.org/2000/svg">
<g clip-path="url(#clip0)">
<path d="M6.28455 0C3.92211 0 2 1.92211 2 4.28455C2 6.64712 3.92211 8.56909 6.28455 8.56909C8.64712 8.56909 10.5691 6.64712 10.5691 4.28455C10.5691 1.92211 8.64712 0 6.28455 0ZM6.28455 7.77812C4.35822 7.77812 2.79099 6.2109 2.79099 4.28457C2.79099 2.35824 4.35822 0.790994 6.28455 0.790994C8.21088 0.790994 9.7781 2.35822 9.7781 4.28455C9.7781 6.21088 8.21088 7.77812 6.28455 7.77812Z" fill="#909198"/>
<path d="M11.857 10.1672L9.06024 7.37047C8.86967 7.1799 8.56104 7.1799 8.37047 7.37047C8.1799 7.56087 8.1799 7.86983 8.37047 8.06023L11.1672 10.857C11.2625 10.9523 11.3872 10.9999 11.5121 10.9999C11.6368 10.9999 11.7617 10.9523 11.857 10.857C12.0476 10.6666 12.0476 10.3576 11.857 10.1672Z" fill="#909198"/>
</g>
<defs>
<clipPath id="clip0">
<rect width="12" height="12" fill="white"/>
</clipPath>
</defs>
</svg>
