<svg width="24" height="24" viewBox="0 0 24 24" fill="none" xmlns="http://www.w3.org/2000/svg">
<g clip-path="url(#clip0)">
<path d="M23.4558 4.42476H13.9189C13.6897 3.36509 12.716 2.53455 11.599 2.53455C10.4535 2.53455 9.50835 3.33646 9.27924 4.42476H0.515513C0.229117 4.42476 0 4.65388 0 4.94027C0 5.22667 0.229117 5.45579 0.515513 5.45579H9.2506C9.47971 6.51545 10.4535 7.346 11.5704 7.346C12.716 7.346 13.6611 6.54409 13.8902 5.45579H23.4558C23.7422 5.45579 23.9714 5.22667 23.9714 4.94027C23.9714 4.65388 23.7422 4.42476 23.4558 4.42476ZM11.599 6.34361C10.8544 6.34361 10.2243 5.74218 10.2243 4.96891C10.2243 4.19564 10.8258 3.59421 11.599 3.59421C12.3437 3.59421 12.9737 4.19564 12.9737 4.96891C12.9737 5.71354 12.3723 6.34361 11.599 6.34361Z" fill="#16B0A7"/>
<path d="M23.4845 11.4989H9.02148C8.79236 10.4392 7.81862 9.60864 6.70167 9.60864C5.55609 9.60864 4.61098 10.4106 4.38186 11.4989H0.515513C0.229117 11.4989 0 11.728 0 12.0144C0 12.3008 0.229117 12.5299 0.515513 12.5299H4.38186C4.61098 13.5895 5.58473 14.4201 6.70167 14.4201C7.84726 14.4201 8.79236 13.6182 9.02148 12.5299H23.4845C23.7709 12.5299 24 12.3008 24 12.0144C24 11.728 23.7709 11.4989 23.4845 11.4989ZM6.70167 13.3891C5.95704 13.3891 5.32697 12.7876 5.32697 12.0144C5.32697 11.2697 5.95704 10.6397 6.70167 10.6397C7.4463 10.6397 8.07637 11.2411 8.07637 12.0144C8.07637 12.759 7.47494 13.3891 6.70167 13.3891Z" fill="#16B0A7"/>
<path d="M23.4558 18.5441H18.9594C18.7303 17.4845 17.7566 16.6539 16.6396 16.6539C15.494 16.6539 14.5489 17.4558 14.3198 18.5441H0.515513C0.229117 18.5441 0 18.7733 0 19.0597C0 19.3461 0.229117 19.5752 0.515513 19.5752H14.2912C14.5203 20.6348 15.494 21.4654 16.611 21.4654C17.7566 21.4654 18.7017 20.6635 18.9308 19.5752H23.4558C23.7422 19.5752 23.9714 19.3461 23.9714 19.0597C23.9714 18.7733 23.7422 18.5441 23.4558 18.5441ZM16.611 20.463C15.8663 20.463 15.2363 19.8616 15.2363 19.0883C15.2363 18.315 15.8663 17.7136 16.611 17.7136C17.3556 17.7136 17.9857 18.315 17.9857 19.0883C17.9857 19.8616 17.3842 20.463 16.611 20.463Z" fill="#16B0A7"/>
</g>
<defs>
<clipPath id="clip0">
<rect width="24" height="24" fill="white"/>
</clipPath>
</defs>
</svg>
