<svg width="17" height="25" viewBox="0 0 17 25" xmlns="http://www.w3.org/2000/svg">
<path d="M8.49985 0C3.90493 0 0.166504 3.73843 0.166504 8.33335C0.166504 9.71274 0.511377 11.0804 1.16699 12.2935L8.04414 24.7314C8.13569 24.8973 8.31016 25 8.49985 25C8.68955 25 8.86401 24.8973 8.95557 24.7314L15.8353 12.2894C16.4883 11.0804 16.8332 9.7127 16.8332 8.3333C16.8332 3.73843 13.0948 0 8.49985 0ZM8.49985 12.5C6.20239 12.5 4.3332 10.6308 4.3332 8.33335C4.3332 6.03589 6.20239 4.1667 8.49985 4.1667C10.7973 4.1667 12.6665 6.03589 12.6665 8.33335C12.6665 10.6308 10.7973 12.5 8.49985 12.5Z" />
</svg>
