<svg width="30" height="22" viewBox="0 0 30 22" fill="none" xmlns="http://www.w3.org/2000/svg">
<rect width="30" height="22" rx="3" fill="#5485EC"/>
<path d="M14.3829 11.5687V14.6097H13.541V7.09987H15.774C16.0405 7.09349 16.3055 7.14766 16.5537 7.25924C16.8018 7.37083 17.0283 7.53762 17.2199 7.75C17.4134 7.94949 17.5675 8.19414 17.6717 8.46751C17.7758 8.74087 17.8277 9.03663 17.8239 9.33489C17.8294 9.63475 17.7783 9.93243 17.6741 10.2075C17.5698 10.4827 17.4149 10.7287 17.2199 10.9288C16.8294 11.3554 16.3475 11.5685 15.774 11.5681H14.3829V11.5687ZM14.3829 8.02444V10.6459H15.7949C15.9497 10.6512 16.1037 10.6194 16.2472 10.5525C16.3906 10.4857 16.5203 10.3852 16.6279 10.2577C16.735 10.1384 16.8201 9.99571 16.8782 9.83809C16.9363 9.68047 16.9663 9.5111 16.9663 9.33998C16.9663 9.16887 16.9363 8.9995 16.8782 8.84188C16.8201 8.68425 16.735 8.54159 16.6279 8.42231C16.5216 8.29205 16.3924 8.18916 16.2488 8.12046C16.1052 8.05176 15.9505 8.01883 15.7949 8.02384H14.3829V8.02444Z" fill="white"/>
<path d="M19.7638 9.30371C20.3861 9.30371 20.8773 9.49426 21.2375 9.87535C21.5976 10.2564 21.7775 10.7789 21.7771 11.4429V14.6096H20.9718V13.8966H20.9352C20.5866 14.4838 20.1229 14.7774 19.5442 14.7774C19.0502 14.7774 18.6369 14.6096 18.3043 14.2741C18.1447 14.1201 18.0171 13.9272 17.9308 13.7095C17.8445 13.4918 17.8016 13.2548 17.8054 13.0158C17.8054 12.4841 17.9808 12.0612 18.3315 11.7473C18.6822 11.4333 19.1504 11.2759 19.7361 11.2751C20.236 11.2751 20.6478 11.3799 20.9713 11.5897V11.3692C20.9722 11.2062 20.9415 11.045 20.8814 10.8973C20.8212 10.7496 20.7331 10.6191 20.6235 10.5153C20.4009 10.2851 20.1107 10.1595 19.8109 10.1636C19.3406 10.1636 18.9684 10.3909 18.6944 10.8455L17.9529 10.3104C18.3608 9.63926 18.9644 9.30371 19.7638 9.30371ZM18.6745 13.0367C18.674 13.1595 18.699 13.2807 18.7476 13.3901C18.7962 13.4995 18.8669 13.5941 18.9538 13.6659C19.14 13.8337 19.3711 13.9226 19.608 13.9176C19.9633 13.9169 20.3038 13.7548 20.555 13.467C20.8339 13.1662 20.9734 12.8132 20.9734 12.4082C20.7109 12.1685 20.3448 12.0487 19.8752 12.0487C19.5332 12.0487 19.248 12.1431 19.0197 12.3321C18.7891 12.5238 18.6745 12.7569 18.6745 13.0367Z" fill="white"/>
<path d="M26.3998 9.47168L23.5885 16.8748H22.7194L23.7627 14.2845L21.9141 9.47168H22.8292L24.1653 13.1628H24.1836L25.4831 9.47168H26.3998Z" fill="white"/>
<path d="M10.9808 10.9134C10.9812 10.6194 10.9595 10.3259 10.916 10.0361H7.36523V11.6977H9.39895C9.35733 11.9631 9.26925 12.2161 9.14001 12.4414C9.01077 12.6667 8.84305 12.8597 8.64696 13.0088V14.0873H9.8607C10.5714 13.3365 10.9808 12.2262 10.9808 10.9134Z" fill="white"/>
<path d="M7.36505 15.1292C8.38112 15.1292 9.23665 14.7469 9.86052 14.0878L8.64677 13.0092C8.30895 13.2717 7.87387 13.4215 7.36505 13.4215C6.38297 13.4215 5.5494 12.6629 5.25133 11.6406H4.00098V12.7521C4.31436 13.4667 4.79489 14.0673 5.38893 14.4871C5.98297 14.9068 6.66714 15.1291 7.36505 15.1292Z" fill="white"/>
<path d="M5.25137 11.6408C5.09379 11.1052 5.09379 10.5251 5.25137 9.98945V8.87793H4.00102C3.73739 9.47902 3.6001 10.1424 3.6001 10.8151C3.6001 11.4879 3.73739 12.1513 4.00102 12.7524L5.25137 11.6408Z" fill="white"/>
<path d="M7.36505 8.2085C7.90199 8.19844 8.42083 8.4309 8.80941 8.85563L9.88405 7.62427C9.20261 6.8909 8.29986 6.48826 7.36505 6.50077C6.66714 6.50081 5.98297 6.72311 5.38893 7.14285C4.79489 7.5626 4.31436 8.16327 4.00098 8.8778L5.25133 9.98932C5.5494 8.96708 6.38297 8.2085 7.36505 8.2085Z" fill="white"/>
</svg>
