<svg width="54" height="50" viewBox="0 0 54 50" fill="none" xmlns="http://www.w3.org/2000/svg">
<path d="M27.0351 50L26.4578 49.3695C24.9278 47.6968 23.6514 46.2902 22.3961 44.8594L23.5534 43.75C24.6397 44.9879 25.7433 46.2098 27.0168 47.6054C27.4683 47.1004 27.9158 46.6034 28.3596 46.1104C29.0751 45.3153 29.7791 44.5331 30.4707 43.748L31.6271 44.8594C30.9317 45.6486 30.2238 46.4357 29.5035 47.2349C28.8772 47.9307 28.2424 48.6345 27.6018 49.3584L27.0351 50ZM42.5734 29.1034L41.1606 28.3865C41.8598 26.8805 42.4457 25.3494 42.9019 23.8373C45.013 16.8705 42.5148 9.23794 36.6858 4.84437C30.9144 0.499991 22.8609 0.576299 17.103 5.02911C11.295 9.51405 8.93232 17.1767 11.2221 24.0974C11.6965 25.5301 12.269 26.9739 12.925 28.3876L11.5112 29.1034C10.8283 27.6315 10.2318 26.1285 9.73718 24.6345C7.22077 17.0311 9.80538 8.62248 16.1684 3.70983C22.4691 -1.16266 31.2832 -1.24298 37.603 3.51305C43.9843 8.32329 46.7149 16.6898 44.3983 24.3333C43.92 25.9207 43.3053 27.5251 42.5734 29.1034Z" fill="#363636"/>
<path d="M0.938369 30.5722V35.4507H3.56331V30.5722H4.50168V41.2991H3.56331V36.4196H0.938369V41.2991H0V30.5722H0.938369Z" fill="#363636"/>
<path d="M5.64172 32.3725C5.64172 31.8102 5.80404 31.3584 6.12867 31.019C6.45331 30.6797 6.88456 30.51 7.42338 30.51H8.47988C9.01774 30.51 9.44995 30.6797 9.77458 31.019C10.0992 31.3584 10.2615 31.8092 10.2615 32.3725V39.498C10.2615 40.0612 10.0992 40.512 9.77458 40.8514C9.44995 41.1907 9.0187 41.3604 8.47988 41.3604H7.42338C6.88456 41.3604 6.45331 41.1907 6.12867 40.8514C5.80404 40.512 5.64172 40.0612 5.64172 39.498V32.3725ZM7.41089 40.3805H8.49141C8.74497 40.3805 8.94667 40.3022 9.09746 40.1446C9.24729 39.9869 9.32317 39.7761 9.32317 39.511V32.3604C9.32317 32.0954 9.24825 31.8845 9.09746 31.7269C8.94667 31.5703 8.74497 31.4909 8.49141 31.4909H7.41089C7.15733 31.4909 6.95563 31.5692 6.80484 31.7269C6.65405 31.8845 6.57913 32.0954 6.57913 32.3604V39.511C6.57913 39.7761 6.65405 39.9869 6.80484 40.1446C6.95563 40.3012 7.15733 40.3805 7.41089 40.3805Z" fill="#363636"/>
<path d="M11.2941 32.3725C11.2941 31.8102 11.4564 31.3584 11.781 31.019C12.1057 30.6797 12.5369 30.51 13.0757 30.51H14.1322C14.6701 30.51 15.1023 30.6797 15.4269 31.019C15.7516 31.3584 15.9139 31.8092 15.9139 32.3725V39.498C15.9139 40.0612 15.7516 40.512 15.4269 40.8514C15.1023 41.1907 14.671 41.3604 14.1322 41.3604H13.0757C12.5369 41.3604 12.1057 41.1907 11.781 40.8514C11.4564 40.512 11.2941 40.0612 11.2941 39.498V32.3725ZM13.0642 40.3805H14.1447C14.3983 40.3805 14.6 40.3022 14.7508 40.1446C14.9006 39.9869 14.9765 39.7761 14.9765 39.511V32.3604C14.9765 32.0954 14.9016 31.8845 14.7508 31.7269C14.6 31.5703 14.3983 31.4909 14.1447 31.4909H13.0642C12.8106 31.4909 12.6089 31.5692 12.4581 31.7269C12.3074 31.8845 12.2324 32.0954 12.2324 32.3604V39.511C12.2324 39.7761 12.3074 39.9869 12.4581 40.1446C12.6089 40.3012 12.8106 40.3805 13.0642 40.3805Z" fill="#363636"/>
<path d="M17.8732 30.5723V36.3323L20.1293 31.2921C20.2398 31.0522 20.4021 30.8614 20.6163 30.7209C20.8305 30.5803 21.0639 30.51 21.3174 30.51H21.6142L19.4167 35.0532L21.6737 41.2992H20.6643L18.8596 36.2088L17.8742 38.245V41.2992H16.9358V30.5723H17.8732Z" fill="#363636"/>
<path d="M24.2747 31.4298C24.3218 31.1738 24.437 30.9659 24.6195 30.8093C24.802 30.6517 25.0191 30.5734 25.2726 30.5734H25.6049L27.6478 41.2993H26.6499L26.187 38.8284H23.8473L23.3844 41.2993H22.3989L24.2747 31.4298ZM26.0439 37.8475L25.0229 32.3103L23.9894 37.8475H26.0439Z" fill="#363636"/>
<path d="M29.417 30.5722V35.4507H32.042V30.5722H32.9803V41.2991H32.042V36.4196H29.417V41.2991H28.4786V30.5722H29.417Z" fill="#363636"/>
<path d="M36.364 30.5117H36.851C37.1362 30.5117 37.3831 30.6011 37.5934 30.7788C37.8028 30.9565 37.9353 31.1904 37.991 31.4806L39.5114 39.5007L41.0674 31.2446C41.1068 31.0298 41.2057 30.8541 41.3642 30.7175C41.5227 30.581 41.709 30.5127 41.9222 30.5127H42.6464V41.2999H41.708V32.6342L40.0579 41.2999H38.9534L37.3024 32.6342V41.2999H36.364V30.5117Z" fill="#363636"/>
<path d="M45.2944 31.4298C45.3414 31.1738 45.4567 30.9659 45.6392 30.8093C45.8217 30.6517 46.0387 30.5734 46.2923 30.5734H46.6246L48.6675 41.2993H47.6696L47.2066 38.8284H44.867L44.404 41.2993H43.4186L45.2944 31.4298ZM47.0645 37.8475L46.0435 32.3103L45.0101 37.8475H47.0645Z" fill="#363636"/>
<path d="M52.2183 30.5722C52.7562 30.5722 53.1884 30.7419 53.513 31.0812C53.8376 31.4206 54 31.8714 54 32.4347V34.5571C54 35.1204 53.8376 35.5712 53.513 35.9106C53.1884 36.2499 52.7571 36.4196 52.2183 36.4196H50.4367V41.2991H49.4983V30.5722H52.2183ZM50.4367 35.4517H52.2298C52.4834 35.4517 52.6851 35.3734 52.8359 35.2158C52.9857 35.0592 53.0616 34.8473 53.0616 34.5822V32.4096C53.0616 32.1445 52.9867 31.9337 52.8359 31.776C52.6851 31.6184 52.4834 31.5401 52.2298 31.5401H50.4367V35.4517Z" fill="#363636"/>
<path d="M24.2728 8.91259C24.3285 8.88247 24.3727 8.89251 24.414 8.89251C24.9912 8.89351 25.5675 8.89552 26.1448 8.89452C26.1841 8.89452 26.2427 8.92765 26.26 8.85235C26.2744 8.78608 26.2341 8.76299 26.1861 8.73487C25.9844 8.6164 25.8259 8.25496 25.8633 8.01801C25.8691 7.98287 25.8826 7.96781 25.9133 7.9658C25.9402 7.9648 25.968 7.96379 25.9949 7.96379C26.1813 7.96279 26.1803 7.96279 26.211 7.77102C26.2274 7.66962 26.2898 7.60837 26.3858 7.60636C26.6548 7.60134 26.9237 7.60134 27.1926 7.60636C27.3088 7.60837 27.3799 7.69271 27.3741 7.82825C27.3693 7.9397 27.401 7.97383 27.5096 7.96981C27.7372 7.96178 27.741 7.96781 27.7065 8.20576C27.6729 8.43568 27.5893 8.63849 27.3761 8.74994C27.33 8.77403 27.3117 8.80516 27.3204 8.85536C27.3309 8.91761 27.379 8.89753 27.4135 8.89853C28.0023 8.90054 28.5901 8.90054 29.1789 8.90355C29.2163 8.90355 29.2663 8.88347 29.2883 8.91861C29.3124 8.95676 29.2701 8.99291 29.2509 9.02604C28.9551 9.54612 28.5353 9.8423 27.9379 9.81419C27.8256 9.80917 27.7122 9.81419 27.5989 9.81018C27.5278 9.80717 27.4952 9.83628 27.5048 9.90957C27.5173 10.007 27.4769 10.0321 27.3876 10.0291C27.2013 10.023 27.1821 10.0602 27.2675 10.2389C27.2935 10.2921 27.3319 10.3403 27.3693 10.3865C27.6921 10.7821 27.7478 11.2118 27.5297 11.6797C27.4548 11.8403 27.3607 11.9919 27.3069 12.1636C27.2935 12.2058 27.2762 12.2479 27.2656 12.2911C27.1917 12.5913 27.2205 12.6214 27.5048 12.5542C28.2559 12.3785 29.0165 12.2841 29.7849 12.2479C30.1873 12.2289 30.584 12.1716 30.9586 12.0019C31.6818 11.6736 31.8566 11.0742 31.8691 10.4116C31.8701 10.3594 31.8413 10.3443 31.8057 10.3242C31.6261 10.2208 31.6194 10.1044 31.7923 9.99391C31.8729 9.94271 31.8864 9.87042 31.8778 9.78508C31.871 9.7148 31.8393 9.65355 31.8105 9.5913C31.7356 9.43267 31.7318 9.27805 31.8345 9.13046C31.9066 9.02704 31.8941 8.91761 31.8355 8.82022C31.7375 8.65757 31.7327 8.50596 31.8336 8.34231C31.9018 8.23186 31.8979 8.1144 31.8192 7.99994C31.7375 7.88147 31.7375 7.74893 31.7904 7.6164C31.8691 7.41962 31.9748 7.23186 31.9604 7.00596C31.9575 6.95877 31.9892 6.92865 32.0333 6.92865C32.0775 6.92865 32.1102 6.95877 32.1073 7.00596C32.0929 7.23186 32.1976 7.42062 32.2773 7.6164C32.3311 7.74893 32.3311 7.88247 32.2495 7.99994C32.1669 8.11942 32.1697 8.23789 32.2398 8.35335C32.334 8.50897 32.3321 8.65456 32.2389 8.80918C32.1688 8.92564 32.1697 9.04311 32.2514 9.16259C32.3388 9.2901 32.3292 9.43066 32.2677 9.56921C32.2389 9.63548 32.2024 9.69974 32.1918 9.77303C32.1784 9.86841 32.1947 9.94472 32.285 9.99994C32.4444 10.0983 32.4396 10.2278 32.2725 10.3172C32.2139 10.3483 32.1976 10.3835 32.1976 10.4477C32.1995 10.6646 32.1707 10.8784 32.1188 11.0883C31.9354 11.8333 31.4407 12.2399 30.7627 12.4437C30.3775 12.5592 29.9818 12.5913 29.5842 12.6114C28.8821 12.6465 28.1896 12.757 27.5038 12.9146C27.475 12.9216 27.4462 12.9327 27.4087 12.9447C27.5096 13.1154 27.5893 13.2861 27.6143 13.4789C27.6479 13.7419 27.596 13.9889 27.4923 14.2268C27.4423 14.3413 27.3924 14.4568 27.3396 14.5702C27.1705 14.9357 27.231 15.276 27.4491 15.5933C27.6248 15.8483 27.5691 15.8554 27.791 15.6154C27.9283 15.4658 28.0177 15.2861 28.0551 15.0803C28.0609 15.0471 28.0638 15.0009 28.0907 14.9939C28.2261 14.9588 28.3173 14.8102 28.471 14.8293C28.519 14.8353 28.5459 14.8283 28.5555 14.777C28.5574 14.769 28.5632 14.763 28.567 14.756C28.5834 14.7268 28.6112 14.6887 28.6352 14.6957C28.7841 14.7439 28.8494 14.527 28.9896 14.5752C29.053 14.5973 29.0876 14.5762 29.1318 14.5351C29.6937 14.008 30.3381 13.6515 31.094 13.5582C32.0689 13.4377 32.9621 13.6285 33.6652 14.4066C34.1617 14.9568 34.4095 15.6315 34.4873 16.3754C34.7121 18.52 33.524 20.4698 31.6367 21.3664C30.8193 21.755 29.9559 21.9829 29.0819 22.1726C28.8686 22.2188 28.6535 22.255 28.4393 22.2961C28.4403 22.3503 28.4729 22.3825 28.495 22.4196C28.7092 22.765 28.9263 23.1074 29.1385 23.4538C29.3527 23.8052 29.539 24.1706 29.6111 24.5883C29.6985 25.0993 29.4997 25.4869 29.0406 25.6877C28.8081 25.7901 28.5642 25.8393 28.3116 25.8393C27.2983 25.8403 26.285 25.8403 25.2717 25.8393C25.0316 25.8393 24.7982 25.7941 24.5754 25.7027C24.0721 25.4969 23.8627 25.0863 23.976 24.5341C24.0644 24.1044 24.2661 23.7289 24.4928 23.3664C24.6839 23.0592 24.8741 22.7519 25.0681 22.4457C25.118 22.3674 25.1334 22.3313 25.0172 22.3102C24.3631 22.1897 23.7417 21.9738 23.1837 21.5873C22.3048 20.9789 21.8409 20.1124 21.7929 19.022C21.7266 17.503 22.1185 16.1285 23.0867 14.9668C23.7282 14.1967 24.535 13.6626 25.4206 13.2529C25.6309 13.1556 25.8441 13.0662 26.0602 12.9869C26.1755 12.9447 26.2379 12.8674 26.2821 12.758C26.3954 12.4789 26.3109 12.2228 26.1966 11.9718C26.1534 11.8764 26.1006 11.7851 26.0554 11.6907C25.8307 11.2158 25.8826 10.777 26.2158 10.3774C26.2783 10.3021 26.3282 10.2228 26.3474 10.1234C26.3618 10.0511 26.3465 10.013 26.2677 10.023C26.237 10.027 26.2053 10.02 26.1745 10.024C26.0939 10.0351 26.0574 10.0019 26.0708 9.9156C26.0862 9.82222 26.0468 9.79914 25.9604 9.80014C25.7462 9.80416 25.5291 9.8162 25.3178 9.78909C24.9192 9.73789 24.6416 9.47986 24.415 9.15255C24.3669 9.08227 24.3247 8.99994 24.2728 8.91259ZM27.8707 15.6305C27.8784 15.6134 27.8918 15.6054 27.9091 15.6044C27.9178 15.5903 27.9255 15.5762 27.9341 15.5622C28.0618 15.4477 28.1761 15.3202 28.2674 15.1726C28.2923 15.1335 28.3433 15.0803 28.2731 15.0391C28.2069 14.9999 28.154 15.0411 28.1358 15.1054C28.0907 15.269 27.9898 15.4005 27.9168 15.5481C27.8928 15.5632 27.8918 15.5813 27.9082 15.6034C27.9024 15.6234 27.888 15.6295 27.8698 15.6274C27.8669 15.6285 27.864 15.6285 27.8611 15.6295C27.863 15.6274 27.864 15.6254 27.8659 15.6234C27.8688 15.6264 27.8697 15.6285 27.8707 15.6305ZM28.5738 14.9919C28.5747 14.9929 28.5767 14.9949 28.5776 14.9959C28.5767 14.9939 28.5757 14.9919 28.5738 14.9899L28.5718 14.9869C28.5728 14.9869 28.5747 14.9929 28.5738 14.9919ZM25.2006 9.6405C25.2083 9.62343 25.2025 9.61238 25.1853 9.60736C25.12 9.50797 25.0374 9.42062 24.9941 9.30315C24.9644 9.22183 24.9701 9.1907 25.0652 9.18668C25.4696 9.16761 25.8739 9.1415 26.2773 9.11841C26.747 9.0913 27.2166 9.06319 27.6863 9.03608C27.6863 9.03507 27.6863 9.03307 27.6863 9.03207C26.6586 9.03207 25.6319 9.03207 24.5975 9.03207C24.7252 9.27705 24.9557 9.51098 25.1737 9.62042C25.1833 9.62644 25.1929 9.63347 25.2025 9.63949C25.2054 9.6415 25.2083 9.64351 25.2112 9.64552C25.2131 9.64652 25.216 9.64552 25.2179 9.64451C25.2122 9.6425 25.2064 9.6415 25.2006 9.6405ZM28.8072 14.8262C28.8091 14.8262 28.81 14.8262 28.812 14.8252C28.81 14.8242 28.8072 14.8242 28.8052 14.8232C28.7908 14.76 28.7428 14.7489 28.6919 14.7429C28.6708 14.7409 28.6544 14.754 28.6487 14.775C28.6429 14.7941 28.641 14.8172 28.6583 14.8303C28.6823 14.8493 28.689 14.8192 28.7025 14.8092C28.7418 14.7821 28.7745 14.8052 28.8072 14.8262ZM26.261 8.65355C26.2619 8.65556 26.2619 8.65756 26.2629 8.65957C26.2629 8.65756 26.2639 8.65556 26.2639 8.65455C26.236 8.60636 26.2043 8.55918 26.1803 8.50797C26.0746 8.29412 26.1121 8.20475 26.3378 8.15756C26.4924 8.12544 26.65 8.10837 26.8065 8.08528C26.8065 8.07423 26.8065 8.06319 26.8065 8.05214C26.6067 8.05214 26.407 8.05616 26.2072 8.05114C25.9517 8.04512 25.9392 8.05415 26.0113 8.31419C26.0516 8.45877 26.1015 8.60234 26.261 8.65355ZM25.9459 13.4136C25.7452 13.4809 25.555 13.5742 25.3649 13.6686C24.5312 14.0813 23.7782 14.6114 23.2 15.3744C22.3807 16.4548 22.059 17.7078 22.13 19.0652C22.1829 20.0662 22.6429 20.8423 23.4708 21.3674C24.0193 21.7158 24.6253 21.8895 25.2506 22.0009C25.3111 22.012 25.3428 21.9899 25.3706 21.9357C25.4648 21.753 25.5656 21.5742 25.6578 21.3905C25.871 20.9628 26.042 20.519 26.1198 20.0401C26.2341 19.3363 26.1159 18.6536 25.9575 17.9738C25.9469 17.9287 25.9277 17.9096 25.8845 17.8945C25.7394 17.8453 25.6818 17.765 25.6799 17.6074C25.6789 17.5421 25.6616 17.4929 25.6232 17.4417C25.483 17.257 25.4062 17.0481 25.4139 16.8092C25.4244 16.4909 25.58 16.2479 25.7827 16.0301C25.9488 15.8513 26.1054 15.6656 26.2197 15.4447C26.3532 15.1857 26.3791 14.9206 26.2658 14.6465C26.213 14.52 26.1592 14.3935 26.1035 14.268C25.9863 14.004 25.9239 13.7309 25.969 13.4387C25.968 13.4287 25.9661 13.4186 25.9652 13.4076C25.9594 13.4076 25.9527 13.4106 25.9459 13.4136ZM27.4193 19.4347C27.4164 19.6837 27.4375 19.9307 27.4875 20.1746C27.6143 20.8011 27.8938 21.3584 28.1953 21.9066C28.2318 21.9728 28.277 21.9658 28.3327 21.9568C29.2413 21.8222 30.1297 21.5983 30.9922 21.272C32.0881 20.8574 32.9957 20.1787 33.5912 19.1134C34.2222 17.9839 34.3932 16.7841 33.9504 15.5361C33.6978 14.8242 33.2483 14.2791 32.5366 14.0441C31.3351 13.6485 30.2728 13.9477 29.3402 14.8102C29.2951 14.8513 29.2749 14.8925 29.2883 14.9578C29.2989 15.01 29.2883 15.0833 29.2403 15.0973C29.1433 15.1264 29.1308 15.2379 29.0771 15.274C28.9628 15.3493 28.8936 15.4487 28.8168 15.5542C28.786 15.5963 28.7246 15.6164 28.6948 15.6736C28.6717 15.7188 28.6227 15.7339 28.5747 15.7399C28.3452 15.767 28.1425 15.8684 27.9485 15.9929C27.8659 16.0461 27.8467 16.0782 27.9187 16.1706C28.252 16.5953 28.2568 17.0331 27.9418 17.4628C27.9072 17.51 27.9014 17.5552 27.9005 17.6094C27.8976 17.763 27.8429 17.8473 27.7055 17.8895C27.6556 17.9046 27.6344 17.9287 27.6239 17.9758C27.5134 18.4568 27.4193 18.9387 27.4193 19.4347ZM27.207 25.5592C26.9439 25.5501 26.6797 25.5341 26.4166 25.4979C26.0372 25.4467 25.6636 25.3724 25.3188 25.1827C25.021 25.018 24.8798 24.761 24.8741 24.4106C24.8654 23.9467 25.022 23.5341 25.216 23.1305C25.2371 23.0863 25.2803 23.0481 25.2631 22.9658C25.1699 23.0943 25.0834 23.2078 25.0018 23.3252C24.7531 23.6797 24.4928 24.027 24.316 24.4297C24.1605 24.7851 24.2623 25.1204 24.5782 25.3293C24.7828 25.4648 25.0124 25.5291 25.2477 25.5692C25.9008 25.6817 26.553 25.6365 27.207 25.5592ZM26.4271 13.0371C26.3878 13.0351 26.3782 13.0612 26.3637 13.0782C26.0843 13.4126 26.043 13.7971 26.2811 14.2048C26.6442 14.8283 26.5654 15.5622 26.0506 16.1023C25.9517 16.2058 25.8509 16.3082 25.7769 16.4347C25.678 16.6033 25.6223 16.7801 25.6703 16.9809C25.7049 17.1274 25.8057 17.2038 25.9315 17.1787C26.0833 17.1485 26.114 17.1034 26.0881 16.9166C26.0583 16.7007 26.0804 16.4929 26.1745 16.2991C26.2591 16.1244 26.3349 15.9467 26.4041 15.766C26.6288 15.1746 26.6749 14.5873 26.3993 13.9939C26.286 13.7489 26.26 13.4869 26.3839 13.2278C26.4098 13.1706 26.4387 13.1114 26.4271 13.0371ZM26.4147 10.4698C26.1688 10.7479 26.0535 11.0481 26.1745 11.4056C26.2811 11.7208 26.4406 12.017 26.4963 12.3835C26.5318 12.2871 26.5376 12.2208 26.5357 12.1525C26.5299 11.9146 26.4828 11.6847 26.3983 11.4648C26.2927 11.1857 26.2591 10.9086 26.4002 10.6295C26.4223 10.5883 26.4415 10.5421 26.4147 10.4698ZM26.3253 19.008C26.3551 18.8232 26.3513 18.6405 26.3397 18.4588C26.3263 18.254 26.3666 18.1907 26.5616 18.1455C26.8027 18.0893 27.0476 18.0883 27.2935 18.1084C27.3607 18.1134 27.379 18.1445 27.3761 18.2078C27.3722 18.2841 27.3751 18.3594 27.3751 18.4357C27.4135 18.3313 27.4308 18.2268 27.4529 18.1234C27.4683 18.0521 27.4462 18.0311 27.378 18.0311C27.0005 18.0341 26.6231 18.0341 26.2456 18.0311C26.1659 18.0301 26.1553 18.0632 26.1717 18.1345C26.237 18.4236 26.2869 18.7148 26.3253 19.008ZM28.8706 23.5291C28.8629 23.5511 28.86 23.5562 28.8609 23.5582C29.0271 23.9688 29.1376 24.3935 29.1635 24.8403C29.1664 24.8895 29.1942 24.9086 29.2384 24.9176C29.3652 24.9447 29.4161 24.8825 29.3863 24.7158C29.3114 24.2831 29.0991 23.9136 28.8706 23.5291ZM31.9969 8.14452C32.0257 7.98388 31.9027 7.82222 31.9527 7.64351C31.9546 7.63648 31.945 7.61942 31.9363 7.6154C31.9133 7.60436 31.9018 7.62544 31.8912 7.6405C31.824 7.73889 31.8259 7.84532 31.8883 7.93669C32.0026 8.10235 31.9863 8.26199 31.8941 8.42564C31.8374 8.52604 31.8317 8.62243 31.8912 8.72383C31.9892 8.8905 32.0036 9.05817 31.8874 9.22483C31.8403 9.2921 31.8384 9.36942 31.8547 9.44672C31.8624 9.48186 31.872 9.52403 31.9219 9.50797C31.9594 9.49592 31.9623 9.46681 31.9527 9.42966C31.9363 9.37042 31.9325 9.30817 31.9527 9.24894C32.0209 9.04512 32.0093 8.8413 31.9556 8.63749C31.9363 8.5652 31.9354 8.49391 31.9613 8.42263C31.9911 8.33929 31.9997 8.24994 31.9969 8.14452ZM26.0631 17.7068C26.0814 17.6084 26.0506 17.5592 25.9488 17.5732C25.8922 17.5813 25.8192 17.5501 25.8278 17.6616C25.8355 17.768 25.8989 17.8383 25.9949 17.8373C26.0958 17.8363 26.0535 17.756 26.0631 17.7068ZM26.8152 7.6646C26.3589 7.6405 26.3013 7.65958 26.2869 7.83528C26.4579 7.74793 26.6365 7.70275 26.8152 7.6646ZM32.0939 10.01C31.9757 10.007 31.8826 10.014 31.8009 10.0672C31.7164 10.1214 31.7164 10.1897 31.7971 10.2469C31.8259 10.267 31.8557 10.2841 31.8922 10.2841C31.8441 10.1244 31.8441 10.1244 32.0939 10.01ZM27.2272 8.70475C27.4097 8.6666 27.4971 8.55917 27.5643 8.42765C27.5835 8.38949 27.5835 8.34532 27.5307 8.33126C27.4884 8.32022 27.4567 8.34632 27.4587 8.38749C27.4664 8.54411 27.3588 8.61239 27.2272 8.70475ZM26.163 17.7058C26.1841 17.7399 26.1227 17.8303 26.2091 17.8293C26.2811 17.8283 26.2418 17.7459 26.2504 17.6997C26.2552 17.6766 26.2504 17.6515 26.2504 17.6274C26.2514 17.5923 26.235 17.5772 26.2014 17.5772C26.1697 17.5772 26.164 17.5973 26.164 17.6244C26.163 17.6475 26.163 17.6716 26.163 17.7058ZM28.52 14.9497C28.4739 14.8945 28.4191 14.8523 28.3605 14.8975C28.3183 14.9307 28.3346 14.9839 28.3807 15.023C28.399 14.9367 28.4556 14.9407 28.52 14.9497ZM28.8494 23.508C28.8475 23.505 28.8456 23.5029 28.8437 23.4999C28.8417 23.5019 28.8369 23.504 28.8369 23.506C28.8369 23.508 28.8398 23.511 28.8417 23.513C28.8446 23.512 28.8465 23.51 28.8494 23.508Z" fill="#363636"/>
</svg>
