<svg width="183" height="167" viewBox="0 0 183 167" fill="none" xmlns="http://www.w3.org/2000/svg">
<path d="M91.6189 167L89.6627 164.894C84.4776 159.307 80.1518 154.609 75.8977 149.831L79.8199 146.125C83.5011 150.26 87.241 154.341 91.557 159.002C93.0868 157.315 94.6036 155.655 96.1073 154.009C98.5322 151.353 100.918 148.741 103.262 146.118L107.18 149.831C104.824 152.466 102.425 155.095 99.9839 157.765C97.8617 160.089 95.7102 162.439 93.5392 164.857L91.6189 167ZM144.277 97.2054L139.489 94.8111C141.858 89.7809 143.844 84.667 145.39 79.6167C152.544 56.3474 144.078 30.8547 124.324 16.1802C104.765 1.66997 77.4731 1.92484 57.96 16.7972C38.2776 31.7769 30.2706 57.3702 38.0303 80.4853C39.6382 85.2706 41.5781 90.0928 43.8012 94.8144L39.01 97.2054C36.6958 92.2893 34.6745 87.2692 32.9982 82.2794C24.4704 56.8839 33.2293 28.7991 54.793 12.3908C76.1451 -3.88328 106.015 -4.15154 127.432 11.7336C149.058 27.7998 158.312 55.7438 150.461 81.2733C148.84 86.5751 146.757 91.9338 144.277 97.2054Z" fill="#FAFAFA"/>
<path d="M3.18003 102.111V118.405H12.0757V102.111H15.2557V137.939H12.0757V121.641H3.18003V137.939H0V102.111H3.18003Z" fill="#FAFAFA"/>
<path d="M19.1192 108.124C19.1192 106.246 19.6692 104.737 20.7694 103.604C21.8695 102.47 23.331 101.903 25.157 101.903H28.7374C30.5601 101.903 32.0248 102.47 33.125 103.604C34.2251 104.737 34.7752 106.243 34.7752 108.124V131.923C34.7752 133.804 34.2251 135.31 33.125 136.444C32.0248 137.577 30.5634 138.144 28.7374 138.144H25.157C23.331 138.144 21.8695 137.577 20.7694 136.444C19.6692 135.31 19.1192 133.804 19.1192 131.923V108.124ZM25.1147 134.871H28.7764C29.6357 134.871 30.3193 134.609 30.8303 134.083C31.338 133.556 31.5952 132.852 31.5952 131.967V108.084C31.5952 107.198 31.3413 106.494 30.8303 105.968C30.3193 105.445 29.6357 105.18 28.7764 105.18H25.1147C24.2554 105.18 23.5719 105.441 23.0608 105.968C22.5498 106.494 22.2959 107.198 22.2959 108.084V131.967C22.2959 132.852 22.5498 133.556 23.0608 134.083C23.5719 134.606 24.2554 134.871 25.1147 134.871Z" fill="#FAFAFA"/>
<path d="M38.2743 108.124C38.2743 106.246 38.8244 104.737 39.9245 103.604C41.0247 102.47 42.4861 101.903 44.3121 101.903H47.8925C49.7152 101.903 51.1799 102.47 52.2801 103.604C53.3802 104.737 53.9303 106.243 53.9303 108.124V131.923C53.9303 133.804 53.3802 135.31 52.2801 136.444C51.1799 137.577 49.7185 138.144 47.8925 138.144H44.3121C42.4861 138.144 41.0247 137.577 39.9245 136.444C38.8244 135.31 38.2743 133.804 38.2743 131.923V108.124ZM44.2731 134.871H47.9348C48.7941 134.871 49.4776 134.609 49.9887 134.083C50.4964 133.556 50.7535 132.852 50.7535 131.967V108.084C50.7535 107.198 50.4997 106.494 49.9887 105.968C49.4776 105.445 48.7941 105.18 47.9348 105.18H44.2731C43.4138 105.18 42.7302 105.441 42.2192 105.968C41.7082 106.494 41.4543 107.198 41.4543 108.084V131.967C41.4543 132.852 41.7082 133.556 42.2192 134.083C42.7302 134.606 43.4138 134.871 44.2731 134.871Z" fill="#FAFAFA"/>
<path d="M60.5703 102.111V121.35L68.216 104.516C68.5903 103.714 69.1404 103.077 69.8663 102.608C70.5921 102.138 71.383 101.903 72.2423 101.903H73.2481L65.8009 117.078L73.4499 137.939H70.029L63.9131 120.937L60.5735 127.738V137.939H57.3935V102.111H60.5703Z" fill="#FAFAFA"/>
<path d="M82.2642 104.975C82.4237 104.12 82.8143 103.426 83.4327 102.903C84.0512 102.377 84.7868 102.115 85.646 102.115H86.7722L93.6954 137.94H90.3136L88.7447 129.687H80.8158L79.2469 137.94H75.9074L82.2642 104.975ZM88.2597 126.41L84.7998 107.916L81.2975 126.41H88.2597Z" fill="#FAFAFA"/>
<path d="M99.6911 102.111V118.405H108.587V102.111H111.767V137.939H108.587V121.641H99.6911V137.939H96.5111V102.111H99.6911Z" fill="#FAFAFA"/>
<path d="M123.233 101.909H124.884C125.85 101.909 126.687 102.208 127.4 102.801C128.109 103.395 128.558 104.176 128.747 105.145L133.9 131.932L139.173 104.357C139.306 103.639 139.641 103.053 140.178 102.597C140.716 102.14 141.347 101.912 142.07 101.912H144.524V137.941H141.344V108.998L135.752 137.941H132.009L126.414 108.998V137.941H123.233V101.909Z" fill="#FAFAFA"/>
<path d="M153.497 104.975C153.657 104.12 154.048 103.426 154.666 102.903C155.284 102.377 156.02 102.115 156.879 102.115H158.005L164.929 137.94H161.547L159.978 129.687H152.049L150.48 137.94H147.141L153.497 104.975ZM159.496 126.41L156.036 107.916L152.534 126.41H159.496Z" fill="#FAFAFA"/>
<path d="M176.962 102.111C178.785 102.111 180.25 102.678 181.35 103.811C182.45 104.945 183 106.45 183 108.332V115.421C183 117.302 182.45 118.808 181.35 119.941C180.25 121.075 178.788 121.641 176.962 121.641H170.924V137.939H167.744V102.111H176.962ZM170.924 118.409H177.001C177.86 118.409 178.544 118.147 179.055 117.621C179.563 117.098 179.82 116.39 179.82 115.505V108.248C179.82 107.363 179.566 106.658 179.055 106.132C178.544 105.605 177.86 105.344 177.001 105.344H170.924V118.409Z" fill="#FAFAFA"/>
<path d="M82.2579 29.7681C82.4466 29.6675 82.5964 29.701 82.7363 29.701C84.6925 29.7044 86.6454 29.7111 88.6016 29.7077C88.7351 29.7077 88.9336 29.8184 88.9922 29.5669C89.0411 29.3456 88.9043 29.2684 88.7416 29.1745C88.0581 28.7788 87.521 27.5716 87.648 26.7802C87.6675 26.6628 87.7131 26.6125 87.8172 26.6058C87.9084 26.6025 88.0027 26.5991 88.0939 26.5991C88.7253 26.5957 88.7221 26.5957 88.8262 25.9552C88.8816 25.6165 89.0931 25.412 89.4186 25.4053C90.33 25.3885 91.2413 25.3885 92.1527 25.4053C92.5466 25.412 92.7874 25.6937 92.7679 26.1464C92.7516 26.5186 92.859 26.6326 93.2269 26.6192C93.9983 26.5924 94.0113 26.6125 93.8941 27.4073C93.7802 28.1752 93.497 28.8526 92.7744 29.2248C92.6182 29.3053 92.5563 29.4093 92.5856 29.5769C92.6214 29.7848 92.7842 29.7178 92.9014 29.7211C94.8966 29.7278 96.8886 29.7278 98.8839 29.7379C99.0108 29.7379 99.18 29.6708 99.2549 29.7882C99.3363 29.9156 99.1931 30.0363 99.128 30.147C98.1255 31.8841 96.7031 32.8733 94.6785 32.7794C94.2977 32.7627 93.9136 32.7794 93.5296 32.766C93.2887 32.756 93.178 32.8532 93.2106 33.098C93.2529 33.4233 93.1162 33.5071 92.8135 33.4971C92.182 33.4769 92.1169 33.601 92.4066 34.1979C92.4945 34.3757 92.6247 34.5366 92.7516 34.6909C93.8453 36.0121 94.034 37.4474 93.2952 39.0101C93.0413 39.5466 92.7223 40.053 92.5401 40.6264C92.4945 40.7673 92.4359 40.9081 92.4001 41.0523C92.1495 42.055 92.2471 42.1556 93.2106 41.9309C95.7559 41.3441 98.3338 41.0288 100.938 40.9081C102.301 40.8444 103.646 40.6533 104.915 40.0865C107.366 38.99 107.958 36.988 108.001 34.7747C108.004 34.6003 107.906 34.55 107.786 34.483C107.177 34.1376 107.155 33.7486 107.74 33.3797C108.014 33.2087 108.059 32.9672 108.03 32.6822C108.007 32.4475 107.9 32.2429 107.802 32.035C107.548 31.5051 107.535 30.9887 107.884 30.4958C108.128 30.1504 108.085 29.7848 107.887 29.4596C107.555 28.9163 107.539 28.4099 107.88 27.8633C108.111 27.4945 108.098 27.1021 107.832 26.7198C107.555 26.3241 107.555 25.8815 107.734 25.4388C108.001 24.7816 108.359 24.1545 108.31 23.3999C108.3 23.2423 108.408 23.1417 108.557 23.1417C108.707 23.1417 108.818 23.2423 108.808 23.3999C108.759 24.1545 109.114 24.7849 109.384 25.4388C109.566 25.8815 109.566 26.3275 109.29 26.7198C109.01 27.1189 109.02 27.5146 109.257 27.9002C109.576 28.42 109.57 28.9063 109.254 29.4227C109.016 29.8117 109.02 30.204 109.296 30.6031C109.592 31.029 109.56 31.4984 109.352 31.9612C109.254 32.1825 109.13 32.3972 109.094 32.642C109.049 32.9605 109.104 33.2154 109.41 33.3998C109.95 33.7285 109.934 34.161 109.368 34.4595C109.169 34.5635 109.114 34.6808 109.114 34.8954C109.12 35.6198 109.023 36.3341 108.847 37.0349C108.225 39.5231 106.549 40.8813 104.251 41.562C102.946 41.9477 101.605 42.055 100.257 42.1221C97.8781 42.2394 95.5313 42.6083 93.2073 43.1348C93.1097 43.1583 93.012 43.1952 92.8851 43.2354C93.2268 43.8055 93.497 44.3755 93.5816 45.0194C93.6955 45.898 93.5198 46.7229 93.1683 47.5177C92.999 47.9 92.8297 48.2856 92.6507 48.6646C92.0779 49.8852 92.2829 51.022 93.0218 52.0817C93.6174 52.9335 93.4286 52.9569 94.1805 52.1555C94.646 51.6558 94.9487 51.0555 95.0756 50.3681C95.0952 50.2574 95.1049 50.1032 95.1961 50.0797C95.655 49.9623 95.9642 49.466 96.485 49.5297C96.6477 49.5499 96.7389 49.5264 96.7714 49.3554C96.7779 49.3286 96.7975 49.3084 96.8105 49.2849C96.8658 49.1877 96.9602 49.0603 97.0416 49.0838C97.5461 49.2447 97.7674 48.5204 98.2426 48.6813C98.4575 48.7551 98.5746 48.6847 98.7244 48.5472C100.628 46.7867 102.813 45.5962 105.374 45.2843C108.678 44.8819 111.705 45.5191 114.087 48.118C115.77 49.9556 116.61 52.2091 116.874 54.694C117.635 61.8569 113.609 68.3692 107.213 71.3638C104.443 72.6616 101.517 73.4228 98.5551 74.0566C97.8325 74.2109 97.1034 74.3316 96.3776 74.4691C96.3808 74.6502 96.4915 74.7575 96.5664 74.8816C97.2922 76.0351 98.0278 77.1786 98.7471 78.3356C99.473 79.5093 100.104 80.7299 100.349 82.1249C100.645 83.8318 99.971 85.1262 98.4152 85.7969C97.6275 86.139 96.8007 86.3033 95.9447 86.3033C92.5108 86.3066 89.0768 86.3066 85.6429 86.3033C84.8292 86.3033 84.0383 86.1524 83.2831 85.8472C81.5776 85.1598 80.868 83.7882 81.2521 81.9439C81.5515 80.5086 82.2351 79.2544 83.0032 78.0438C83.6509 77.0177 84.2954 75.9915 84.9529 74.9687C85.1221 74.7072 85.1742 74.5865 84.7804 74.516C82.5638 74.1136 80.4579 73.3926 78.5668 72.1016C75.5886 70.0694 74.0165 67.1754 73.8537 63.5336C73.6291 58.4599 74.9571 53.8691 78.238 49.9892C80.4123 47.4171 83.1464 45.6331 86.1475 44.2649C86.8603 43.9396 87.5829 43.6412 88.3152 43.3762C88.7058 43.2354 88.9174 42.9772 89.0671 42.6116C89.4512 41.6794 89.1647 40.8243 88.7774 39.9859C88.6309 39.6674 88.4519 39.3622 88.2989 39.047C87.5373 37.4608 87.713 35.9954 88.8425 34.6607C89.0541 34.4092 89.2233 34.1443 89.2884 33.8123C89.3372 33.5708 89.2852 33.4434 89.0183 33.4769C88.9141 33.4904 88.8067 33.4669 88.7025 33.4803C88.4291 33.5172 88.3054 33.4065 88.351 33.1181C88.4031 32.8063 88.2696 32.7291 87.9767 32.7325C87.2509 32.7459 86.5153 32.7861 85.7992 32.6956C84.4484 32.5246 83.5077 31.6628 82.7396 30.5695C82.5768 30.3348 82.4336 30.0598 82.2579 29.7681ZM94.4507 52.2058C94.4767 52.1488 94.5223 52.1219 94.5809 52.1186C94.6102 52.0716 94.6362 52.0247 94.6655 51.9777C95.0984 51.5954 95.4857 51.1696 95.7949 50.6766C95.8796 50.5458 96.0521 50.3681 95.8145 50.2306C95.5899 50.0998 95.4109 50.2373 95.349 50.4519C95.196 50.9985 94.8543 51.4378 94.6069 51.9308C94.5255 51.9811 94.5223 52.0415 94.5776 52.1152C94.5581 52.1823 94.5093 52.2024 94.4474 52.1957C94.4377 52.1991 94.4279 52.1991 94.4181 52.2024C94.4246 52.1957 94.4279 52.189 94.4344 52.1823C94.4442 52.1924 94.4474 52.1991 94.4507 52.2058ZM96.8333 50.073C96.8365 50.0763 96.843 50.0831 96.8463 50.0864C96.843 50.0797 96.8398 50.073 96.8333 50.0663L96.8268 50.0562C96.83 50.0562 96.8365 50.0763 96.8333 50.073ZM85.4021 32.1993C85.4281 32.1423 85.4086 32.1054 85.35 32.0886C85.1287 31.7566 84.8488 31.4649 84.7023 31.0726C84.6014 30.8009 84.6209 30.697 84.9431 30.6835C86.3135 30.6198 87.6838 30.5326 89.0508 30.4555C90.6425 30.365 92.2341 30.2711 93.8257 30.1805C93.8257 30.1772 93.8257 30.1705 93.8257 30.1671C90.343 30.1671 86.8635 30.1671 83.358 30.1671C83.7909 30.9854 84.5721 31.7667 85.3109 32.1322C85.3435 32.1523 85.376 32.1758 85.4086 32.1959C85.4184 32.2026 85.4281 32.2094 85.4379 32.2161C85.4444 32.2194 85.4541 32.2161 85.4607 32.2127C85.4411 32.206 85.4216 32.2027 85.4021 32.1993ZM97.6242 49.5197C97.6307 49.5197 97.634 49.5197 97.6405 49.5163C97.634 49.513 97.6242 49.513 97.6177 49.5096C97.5689 49.2984 97.4061 49.2615 97.2336 49.2414C97.162 49.2346 97.1067 49.2782 97.0872 49.3487C97.0676 49.4124 97.0611 49.4895 97.1197 49.5331C97.2011 49.5968 97.2239 49.4962 97.2694 49.4627C97.4029 49.3721 97.5135 49.4493 97.6242 49.5197ZM88.9955 28.9029C88.9987 28.9096 88.9987 28.9163 89.002 28.923C89.002 28.9163 89.0052 28.9096 89.0052 28.9062C88.9108 28.7453 88.8034 28.5877 88.7221 28.4167C88.364 27.7024 88.491 27.4039 89.2559 27.2463C89.7799 27.139 90.3137 27.082 90.8443 27.0049C90.8443 26.968 90.8443 26.9311 90.8443 26.8942C90.1672 26.8942 89.4902 26.9076 88.8132 26.8908C87.9474 26.8707 87.9051 26.9009 88.1492 27.7694C88.2859 28.2523 88.4552 28.7319 88.9955 28.9029ZM87.9279 44.8014C87.2476 45.0261 86.6031 45.338 85.9587 45.6532C83.1334 47.0314 80.5816 48.802 78.6221 51.3506C75.8457 54.9589 74.7553 59.144 74.9962 63.6778C75.1752 67.0212 76.7343 69.6133 79.54 71.3672C81.3985 72.5308 83.4524 73.1109 85.5713 73.4832C85.7764 73.5201 85.8838 73.4463 85.9782 73.2652C86.2972 72.6549 86.6389 72.058 86.9514 71.4443C87.674 70.0158 88.2534 68.5335 88.517 66.934C88.9043 64.5832 88.504 62.3029 87.9669 60.0326C87.9311 59.8817 87.866 59.818 87.7196 59.7677C87.2281 59.6034 87.0328 59.3351 87.0263 58.8087C87.023 58.5907 86.9644 58.4264 86.8342 58.2553C86.359 57.6383 86.0986 56.9408 86.1247 56.1427C86.1605 55.0797 86.6878 54.2681 87.3745 53.5404C87.9376 52.9435 88.4682 52.3231 88.8555 51.5854C89.308 50.7202 89.3958 49.8349 89.0118 48.9194C88.8327 48.4969 88.6505 48.0744 88.4617 47.6552C88.0646 46.7732 87.853 45.8611 88.006 44.8853C88.0027 44.8517 87.9962 44.8182 87.993 44.7813C87.9734 44.7813 87.9507 44.7914 87.9279 44.8014ZM92.9209 64.9118C92.9111 65.7435 92.9827 66.5684 93.152 67.3833C93.5816 69.4758 94.5288 71.337 95.5508 73.168C95.6745 73.3893 95.8275 73.3658 96.0163 73.3356C99.0954 72.8863 102.106 72.1385 105.029 71.0486C108.743 69.6637 111.819 67.3967 113.837 63.8388C115.975 60.0662 116.555 56.0589 115.054 51.8906C114.198 49.513 112.675 47.6921 110.263 46.9074C106.191 45.5861 102.591 46.5854 99.4307 49.466C99.2777 49.6035 99.2093 49.741 99.2549 49.959C99.2907 50.1334 99.2549 50.3782 99.0922 50.4251C98.7634 50.5224 98.7211 50.8946 98.5388 51.0153C98.1515 51.2668 97.9171 51.5988 97.6568 51.9509C97.5526 52.0918 97.3443 52.1588 97.2434 52.35C97.1653 52.5009 96.9993 52.5512 96.8365 52.5713C96.0586 52.6618 95.3718 53.0005 94.7143 53.4164C94.4344 53.5941 94.3693 53.7014 94.6134 54.0099C95.7429 55.4284 95.7592 56.8905 94.6916 58.3258C94.5744 58.4834 94.5548 58.6343 94.5516 58.8153C94.5418 59.3284 94.3563 59.6101 93.8908 59.751C93.7216 59.8013 93.65 59.8817 93.6142 60.0393C93.2399 61.6456 92.9209 63.2553 92.9209 64.9118ZM92.2015 85.3677C91.3097 85.3375 90.4146 85.2838 89.5228 85.1631C88.2371 84.9921 86.9709 84.7439 85.8024 84.1101C84.7934 83.5602 84.3149 82.7017 84.2954 81.5314C84.2661 79.9821 84.7967 78.6038 85.4542 77.2558C85.5258 77.1082 85.6722 76.9808 85.6136 76.7058C85.2979 77.1351 85.005 77.514 84.7283 77.9063C83.8853 79.0901 83.0032 80.2504 82.4043 81.5951C81.877 82.7822 82.222 83.9022 83.2929 84.5998C83.9862 85.0525 84.7641 85.2671 85.5616 85.4012C87.7749 85.7768 89.985 85.6259 92.2015 85.3677ZM89.5586 43.5439C89.4251 43.5372 89.3926 43.6244 89.3438 43.6814C88.3966 44.7981 88.2566 46.0824 89.0638 47.4439C90.2942 49.5264 90.0273 51.9777 88.2827 53.7819C87.9474 54.1273 87.6056 54.4693 87.355 54.8918C87.0198 55.4552 86.831 56.0454 86.9937 56.7161C87.1109 57.2057 87.4527 57.4606 87.8791 57.3767C88.3933 57.2761 88.4975 57.1252 88.4096 56.5015C88.3087 55.7805 88.3836 55.0864 88.7025 54.4391C88.989 53.8556 89.2461 53.2621 89.4805 52.6585C90.2421 50.6833 90.3983 48.7216 89.4642 46.7397C89.0801 45.9215 88.9922 45.0462 89.4121 44.181C89.5 43.9899 89.5976 43.7921 89.5586 43.5439ZM89.5163 34.9692C88.683 35.8981 88.2924 36.9008 88.7025 38.0946C89.0638 39.1476 89.6041 40.1368 89.7929 41.3608C89.9134 41.0389 89.9329 40.8176 89.9264 40.5895C89.9069 39.7948 89.7474 39.0268 89.4609 38.2924C89.1029 37.3602 88.989 36.4347 89.4674 35.5024C89.5423 35.3649 89.6074 35.2107 89.5163 34.9692ZM89.2136 63.4866C89.3145 62.8696 89.3014 62.2593 89.2624 61.6523C89.2168 60.9682 89.3535 60.757 90.0143 60.6061C90.8312 60.4183 91.6612 60.4149 92.4945 60.482C92.7223 60.4988 92.7842 60.6027 92.7744 60.814C92.7614 61.0688 92.7712 61.3204 92.7712 61.5752C92.9014 61.2265 92.9599 60.8777 93.0348 60.5323C93.0869 60.2942 93.012 60.2238 92.7809 60.2238C91.5018 60.2338 90.2226 60.2338 88.9434 60.2238C88.6732 60.2204 88.6375 60.3311 88.6928 60.5692C88.9141 61.535 89.0834 62.5075 89.2136 63.4866ZM97.839 78.5871C97.813 78.6609 97.8032 78.6776 97.8065 78.6843C98.3696 80.0559 98.7439 81.4744 98.8318 82.9666C98.8415 83.131 98.9359 83.1947 99.0857 83.2249C99.5153 83.3154 99.6878 83.1075 99.5869 82.5508C99.333 81.1055 98.6137 79.8714 97.839 78.5871ZM108.434 27.2027C108.531 26.6662 108.115 26.1263 108.284 25.5294C108.29 25.5059 108.258 25.4489 108.229 25.4355C108.151 25.3986 108.111 25.469 108.076 25.5193C107.848 25.8479 107.854 26.2034 108.066 26.5086C108.453 27.0619 108.398 27.5951 108.085 28.1417C107.893 28.477 107.874 28.7989 108.076 29.1376C108.408 29.6943 108.456 30.2543 108.063 30.811C107.903 31.0357 107.897 31.2939 107.952 31.5521C107.978 31.6695 108.011 31.8103 108.18 31.7566C108.307 31.7164 108.317 31.6192 108.284 31.4951C108.229 31.2972 108.216 31.0893 108.284 30.8915C108.515 30.2107 108.476 29.53 108.294 28.8492C108.229 28.6078 108.225 28.3697 108.313 28.1316C108.414 27.8533 108.443 27.5548 108.434 27.2027ZM88.325 59.1406C88.3868 58.812 88.2827 58.6477 87.9376 58.6946C87.7456 58.7215 87.4982 58.6175 87.5275 58.9897C87.5536 59.3452 87.7684 59.5799 88.0939 59.5766C88.4356 59.5732 88.2924 59.305 88.325 59.1406ZM90.8735 25.5998C89.3275 25.5193 89.1322 25.583 89.0834 26.1699C89.6627 25.8781 90.2681 25.7272 90.8735 25.5998ZM108.762 33.4334C108.362 33.4233 108.046 33.4468 107.77 33.6245C107.483 33.8056 107.483 34.0336 107.757 34.2248C107.854 34.2918 107.955 34.3488 108.079 34.3488C107.916 33.8157 107.916 33.8156 108.762 33.4334ZM92.2699 29.0739C92.8883 28.9465 93.1845 28.5877 93.4124 28.1484C93.4775 28.0209 93.4775 27.8734 93.2984 27.8265C93.1552 27.7896 93.0478 27.8768 93.0543 28.0142C93.0804 28.5374 92.7158 28.7654 92.2699 29.0739ZM88.6635 59.1373C88.7351 59.2513 88.5268 59.5531 88.8197 59.5497C89.0638 59.5464 88.9304 59.2714 88.9597 59.1172C88.9759 59.04 88.9597 58.9562 88.9597 58.8757C88.9629 58.7583 88.9076 58.708 88.7937 58.708C88.6863 58.708 88.6667 58.7751 88.6667 58.8657C88.6635 58.9428 88.6635 59.0233 88.6635 59.1373ZM96.651 49.9322C96.4948 49.7477 96.3092 49.6069 96.1107 49.7578C95.9675 49.8684 96.0228 50.0462 96.179 50.1769C96.2409 49.8886 96.4329 49.902 96.651 49.9322ZM97.7674 78.5167C97.7609 78.5066 97.7544 78.4999 97.7479 78.4898C97.7414 78.4965 97.7251 78.5033 97.7251 78.51C97.7251 78.5167 97.7349 78.5267 97.7414 78.5334C97.7512 78.5301 97.7576 78.5234 97.7674 78.5167Z" fill="#FAFAFA"/>
</svg>
