<svg width="30" height="22" viewBox="0 0 30 22" fill="none" xmlns="http://www.w3.org/2000/svg">
<rect width="30" height="22" rx="3" fill="#072D43"/>
<path d="M17.6177 16.4068H12.3682V5.59668H17.6177V16.4068Z" fill="#FF5F00"/>
<path d="M12.7047 11.001C12.7047 8.80809 13.6007 6.85473 14.9961 5.59591C13.9757 4.6754 12.6879 4.12598 11.2883 4.12598C7.97493 4.12598 5.28906 7.20397 5.28906 11.001C5.28906 14.798 7.97493 17.876 11.2883 17.876C12.6879 17.876 13.9757 17.3266 14.9961 16.406C13.6007 15.1472 12.7047 13.1939 12.7047 11.001Z" fill="#EB001B"/>
<path d="M24.6977 11.001C24.6977 14.798 22.0118 17.876 18.6984 17.876C17.2988 17.876 16.011 17.3266 14.9902 16.406C16.386 15.1472 17.2821 13.1939 17.2821 11.001C17.2821 8.80809 16.386 6.85473 14.9902 5.59591C16.011 4.6754 17.2988 4.12598 18.6984 4.12598C22.0118 4.12598 24.6977 7.20397 24.6977 11.001Z" fill="#F79E1B"/>
<path d="M9.8037 11.0444C9.8037 10.7441 9.97544 10.4974 10.2561 10.4974C10.5242 10.4974 10.7053 10.7335 10.7053 11.0444C10.7053 11.3554 10.5242 11.5914 10.2561 11.5914C9.97544 11.5914 9.8037 11.3447 9.8037 11.0444ZM11.0109 11.0444V10.1902H10.6867V10.3976C10.5839 10.2438 10.4278 10.1472 10.2157 10.1472C9.79763 10.1472 9.46985 10.5228 9.46985 11.0444C9.46985 11.5665 9.79763 11.9417 10.2157 11.9417C10.4278 11.9417 10.5839 11.8451 10.6867 11.6913V11.8987H11.0109V11.0444ZM21.9668 11.0444C21.9668 10.7441 22.1385 10.4974 22.4192 10.4974C22.6877 10.4974 22.8683 10.7335 22.8683 11.0444C22.8683 11.3554 22.6877 11.5914 22.4192 11.5914C22.1385 11.5914 21.9668 11.3447 21.9668 11.0444ZM23.1743 11.0444V9.50408H22.8498V10.3976C22.7469 10.2438 22.5909 10.1472 22.3788 10.1472C21.9607 10.1472 21.6329 10.5228 21.6329 11.0444C21.6329 11.5665 21.9607 11.9417 22.3788 11.9417C22.5909 11.9417 22.7469 11.8451 22.8498 11.6913V11.8987H23.1743V11.0444ZM15.0353 10.4798C15.2441 10.4798 15.3784 10.63 15.4127 10.8943H14.6389C14.6736 10.6476 14.8043 10.4798 15.0353 10.4798ZM15.0417 10.1472C14.6047 10.1472 14.299 10.5118 14.299 11.0444C14.299 11.5878 14.6172 11.9417 15.0635 11.9417C15.2881 11.9417 15.4937 11.8774 15.6748 11.7023L15.5159 11.427C15.3909 11.5411 15.2316 11.6058 15.082 11.6058C14.8732 11.6058 14.6829 11.4949 14.6361 11.1872H15.7433C15.7465 11.141 15.7497 11.0944 15.7497 11.0444C15.7465 10.5118 15.4594 10.1472 15.0417 10.1472ZM18.9564 11.0444C18.9564 10.7441 19.1282 10.4974 19.4088 10.4974C19.677 10.4974 19.858 10.7335 19.858 11.0444C19.858 11.3554 19.677 11.5914 19.4088 11.5914C19.1282 11.5914 18.9564 11.3447 18.9564 11.0444ZM20.1636 11.0444V10.1902H19.8394V10.3976C19.7363 10.2438 19.5806 10.1472 19.3685 10.1472C18.9504 10.1472 18.6226 10.5228 18.6226 11.0444C18.6226 11.5665 18.9504 11.9417 19.3685 11.9417C19.5806 11.9417 19.7363 11.8451 19.8394 11.6913V11.8987H20.1636V11.0444ZM17.1255 11.0444C17.1255 11.5628 17.4404 11.9417 17.921 11.9417C18.1456 11.9417 18.2952 11.8844 18.4573 11.7379L18.3016 11.4376C18.1799 11.5378 18.052 11.5914 17.9113 11.5914C17.6525 11.5878 17.4622 11.3734 17.4622 11.0444C17.4622 10.7155 17.6525 10.5011 17.9113 10.4974C18.052 10.4974 18.1799 10.551 18.3016 10.6513L18.4573 10.351C18.2952 10.2045 18.1456 10.1472 17.921 10.1472C17.4404 10.1472 17.1255 10.5261 17.1255 11.0444ZM21.3055 10.1472C21.1184 10.1472 20.9967 10.2475 20.9124 10.3976V10.1902H20.591V11.8987H20.9156V10.9409C20.9156 10.6582 21.0217 10.5011 21.2337 10.5011C21.2994 10.5011 21.368 10.5118 21.4365 10.5441L21.5365 10.1939C21.4648 10.1615 21.3712 10.1472 21.3055 10.1472ZM12.6144 10.326C12.4584 10.2082 12.2435 10.1472 12.0064 10.1472C11.6286 10.1472 11.3855 10.3547 11.3855 10.6942C11.3855 10.9728 11.5665 11.1447 11.9 11.1983L12.0531 11.2232C12.231 11.2519 12.3149 11.3055 12.3149 11.402C12.3149 11.5342 12.1963 11.6094 11.9749 11.6094C11.7504 11.6094 11.5883 11.5272 11.479 11.4307L11.3262 11.7199C11.504 11.8701 11.7286 11.9417 11.9717 11.9417C12.4023 11.9417 12.6519 11.7093 12.6519 11.384C12.6519 11.0837 12.4555 10.9266 12.131 10.873L11.9782 10.8476C11.8378 10.8264 11.7254 10.7945 11.7254 10.6799C11.7254 10.5547 11.8314 10.4798 12.0092 10.4798C12.1995 10.4798 12.3838 10.5621 12.4741 10.6263L12.6144 10.326ZM16.7977 10.1472C16.6106 10.1472 16.4888 10.2475 16.4049 10.3976V10.1902H16.0836V11.8987H16.4078V10.9409C16.4078 10.6582 16.5138 10.5011 16.7259 10.5011C16.7916 10.5011 16.8602 10.5118 16.9287 10.5441L17.0287 10.1939C16.9569 10.1615 16.8634 10.1472 16.7977 10.1472ZM14.0309 10.1902H13.5006V9.67182H13.1729V10.1902H12.8704V10.5298H13.1729V11.3091C13.1729 11.7056 13.3071 11.9417 13.6906 11.9417C13.8313 11.9417 13.9934 11.8917 14.0962 11.8095L14.0027 11.4912C13.9059 11.5554 13.7999 11.5878 13.7156 11.5878C13.5535 11.5878 13.5006 11.4732 13.5006 11.3018V10.5298H14.0309V10.1902ZM9.18314 11.8987V10.8264C9.18314 10.4226 8.95855 10.1509 8.59649 10.1472C8.40618 10.1435 8.2098 10.2115 8.07234 10.4512C7.96951 10.2618 7.8074 10.1472 7.5796 10.1472C7.42035 10.1472 7.26468 10.2008 7.14292 10.4009V10.1902H6.81836V11.8987H7.14578V10.9516C7.14578 10.655 7.28931 10.4974 7.51105 10.4974C7.72635 10.4974 7.83525 10.6582 7.83525 10.9479V11.8987H8.16303V10.9516C8.16303 10.655 8.31263 10.4974 8.52794 10.4974C8.74931 10.4974 8.85536 10.6582 8.85536 10.9479V11.8987H9.18314Z" fill="white"/>
</svg>
