<svg width="24" height="24" viewBox="0 0 24 24" fill="none" xmlns="http://www.w3.org/2000/svg">
<g id="Nova Poshta (&#208;&#157;&#208;&#190;&#208;&#178;&#208;&#176;&#209;&#143; &#208;&#159;&#208;&#190;&#209;&#136;&#209;&#130;&#208;&#176;)">
<g id="Nova Poshta (&#208;&#157;&#208;&#190;&#208;&#178;&#208;&#176;&#209;&#143; &#208;&#159;&#208;&#190;&#209;&#136;&#209;&#130;&#208;&#176;)_2">
<rect id="Rectangle" width="24" height="24" rx="12" fill="#ED1C24"/>
<g id="Group">
<path id="path3461" fill-rule="evenodd" clip-rule="evenodd" d="M16.8206 8.78136C16.869 8.76614 16.9327 8.79657 16.9964 8.88024C16.9964 8.88024 16.9964 8.88024 19.874 11.6844C20.042 11.8517 20.042 12.1052 19.874 12.2295C19.874 12.2295 19.874 12.2295 16.9964 15.0767C16.9327 15.1604 16.869 15.1806 16.8206 15.1553C16.7723 15.1299 16.7417 15.0564 16.7417 14.9499V8.9639C16.7417 8.85995 16.7723 8.79657 16.8206 8.78136Z" fill="white"/>
<path id="path3463" fill-rule="evenodd" clip-rule="evenodd" d="M11.8981 4.10864H12.1018L12.2979 4.18977C12.2979 4.18977 12.2979 4.18977 15.2595 7.12067C15.3869 7.28801 15.3436 7.41477 15.1322 7.41477C15.1322 7.41477 15.1322 7.41477 13.9048 7.41477C13.6934 7.41477 13.5253 7.58211 13.5253 7.79255C13.5253 7.79255 13.5253 7.79255 13.5253 9.9679C13.5253 10.1783 13.3547 10.3457 13.1 10.3457C13.1 10.3457 13.1 10.3457 10.9431 10.3457C10.7317 10.3457 10.5611 10.1783 10.5611 9.9679C10.5611 9.9679 10.5611 9.9679 10.5611 7.79255C10.5611 7.58211 10.3931 7.41477 10.1791 7.41477H8.86767C8.65631 7.41477 8.61302 7.28801 8.74034 7.12067C8.74034 7.12067 8.74034 7.12067 11.7045 4.18977L11.8981 4.10864Z" fill="white"/>
<path id="path3465" fill-rule="evenodd" clip-rule="evenodd" d="M7.25832 8.71798C7.31179 8.74333 7.3449 8.81685 7.3449 8.92334V15.0336C7.3449 15.1401 7.31179 15.2035 7.25832 15.2238C7.20738 15.244 7.13353 15.2238 7.04695 15.1604C7.04695 15.1604 7.04695 15.1604 4.12605 12.2295C3.95798 12.1052 3.95798 11.8517 4.12605 11.6844C4.12605 11.6844 4.12605 11.6844 7.04695 8.79657C7.13353 8.7129 7.20738 8.69262 7.25832 8.71798Z" fill="white"/>
<path id="path3467" fill-rule="evenodd" clip-rule="evenodd" d="M10.9433 13.5276C10.9433 13.5276 10.9433 13.5276 13.1002 13.5276C13.3549 13.5276 13.5255 13.6949 13.5255 13.9054C13.5255 13.9054 13.5255 13.9054 13.5255 16.2075C13.5255 16.4585 13.6936 16.6258 13.9049 16.6258H15.0483C15.2597 16.6258 15.3437 16.7501 15.1756 16.8768C15.1756 16.8768 15.1756 16.8768 12.298 19.7646C12.2115 19.8483 12.1071 19.8914 12.0001 19.8914C11.8957 19.8914 11.7887 19.8483 11.7047 19.7646C11.7047 19.7646 11.7047 19.7646 8.82709 16.8768C8.65647 16.7501 8.74051 16.6258 8.95187 16.6258C8.95187 16.6258 8.95187 16.6258 10.1793 16.6258C10.3932 16.6258 10.5613 16.4585 10.5613 16.2075C10.5613 16.2075 10.5613 16.2075 10.5613 13.9054C10.5613 13.6949 10.7319 13.5276 10.9433 13.5276Z" fill="white"/>
</g>
</g>
</g>
</svg>
