<svg width="20" height="20" viewBox="0 0 20 20" fill="none" xmlns="http://www.w3.org/2000/svg">
<g clip-path="url(#clip0)">
<path d="M10 10C7.24306 10 5 7.75697 5 4.99998C5 2.24299 7.24306 0 10 0C12.757 0 15 2.24303 15 5.00002C15 7.75701 12.757 10 10 10ZM10 1.25001C7.93216 1.25001 6.25001 2.93212 6.25001 5.00002C6.25001 7.06791 7.93212 8.75002 10 8.75002C12.0679 8.75002 13.75 7.06788 13.75 5.00002C13.75 2.93216 12.0679 1.25001 10 1.25001Z" fill="#FAFAFA"/>
<path d="M18.125 20H1.87501C1.52953 20 1.25 19.7205 1.25 19.375V15.0726C1.25 14.4268 1.58019 13.8202 2.11121 13.4881C6.80481 10.5602 13.1995 10.5608 17.8882 13.4875C18.4198 13.8201 18.75 14.4268 18.75 15.0726V19.375C18.75 19.7205 18.4705 20 18.125 20ZM2.50001 18.75H17.5V15.0726C17.5 14.8547 17.395 14.6533 17.226 14.5477C12.9346 11.8689 7.06848 11.867 2.77349 14.5483C2.60503 14.6533 2.50005 14.8547 2.50005 15.0727L2.50001 18.75Z" fill="#FAFAFA"/>
</g>
<defs>
<clipPath id="clip0">
<rect width="20" height="20" fill="white"/>
</clipPath>
</defs>
</svg>
