<svg width="20" height="20" viewBox="0 0 20 20" fill="none" xmlns="http://www.w3.org/2000/svg">
<g clip-path="url(#clip0)">
<path d="M10 12C7.24306 12 5 9.75697 5 6.99998C5 4.24299 7.24306 2 10 2C12.757 2 15 4.24303 15 7.00002C15 9.75701 12.757 12 10 12ZM10 3.25001C7.93216 3.25001 6.25001 4.93212 6.25001 7.00002C6.25001 9.06791 7.93212 10.75 10 10.75C12.0679 10.75 13.75 9.06788 13.75 7.00002C13.75 4.93216 12.0679 3.25001 10 3.25001Z" fill="#363636"/>
<path d="M18.125 22H1.87501C1.52953 22 1.25 21.7205 1.25 21.375V17.0726C1.25 16.4268 1.58019 15.8202 2.11121 15.4881C6.80481 12.5602 13.1995 12.5608 17.8882 15.4875C18.4198 15.8201 18.75 16.4268 18.75 17.0726V21.375C18.75 21.7205 18.4705 22 18.125 22ZM2.50001 20.75H17.5V17.0726C17.5 16.8547 17.395 16.6533 17.226 16.5477C12.9346 13.8689 7.06848 13.867 2.77349 16.5483C2.60503 16.6533 2.50005 16.8547 2.50005 17.0727L2.50001 20.75Z" fill="#363636"/>
</g>
<defs>
<clipPath id="clip0">
<rect width="20" height="20" fill="white"/>
</clipPath>
</defs>
</svg>
