<svg width="20" height="20" viewBox="0 0 20 20" fill="none" xmlns="http://www.w3.org/2000/svg">
<g clip-path="url(#clip0)">
<path d="M4.47644 19.5955C4.25731 19.5955 4.03972 19.5271 3.85401 19.3929C3.50809 19.1421 3.34649 18.7112 3.44064 18.2954L4.7273 12.6277L0.363772 8.801C0.0430228 8.52099 -0.0795087 8.07756 0.0521783 7.67182C0.183865 7.26684 0.542152 6.98012 0.966358 6.9409L6.73984 6.41675L9.02246 1.07497C9.19077 0.682502 9.57408 0.429047 9.99997 0.429047C10.4259 0.429047 10.8092 0.682502 10.9775 1.07405L13.2601 6.41675L19.0327 6.9409C19.4578 6.9792 19.8161 7.26684 19.9478 7.67182C20.0794 8.0768 19.9577 8.52099 19.6369 8.801L15.2734 12.6269L16.5601 18.2945C16.6544 18.7112 16.4926 19.1421 16.1468 19.3921C15.8018 19.642 15.3418 19.6613 14.9784 19.4429L9.99997 16.4678L5.0215 19.4446C4.85319 19.5445 4.66565 19.5955 4.47644 19.5955ZM9.99997 15.1862C10.1892 15.1862 10.3766 15.237 10.545 15.337L15.2435 18.1471L14.0292 12.7977C13.9425 12.417 14.0717 12.0195 14.3659 11.7619L18.4861 8.14851L13.035 7.65351C12.6426 7.61765 12.305 7.37091 12.1517 7.00926L9.99997 1.96824L7.84567 7.01003C7.694 7.36923 7.35646 7.61597 6.96491 7.65183L1.5131 8.14684L5.63309 11.7602C5.9282 12.0185 6.05729 12.4153 5.96986 12.7969L4.75644 18.1462L9.45491 15.337C9.62322 15.237 9.81075 15.1862 9.99997 15.1862ZM6.69574 6.52005C6.69574 6.52005 6.69574 6.52097 6.69482 6.52173L6.69574 6.52005ZM13.3025 6.51761L13.3034 6.51929C13.3034 6.51838 13.3034 6.51838 13.3025 6.51761Z" fill="#16B0A7"/>
</g>
<defs>
<clipPath id="clip0">
<rect width="20" height="20" fill="white"/>
</clipPath>
</defs>
</svg>
