<svg width="20" height="20" viewBox="0 0 20 20" fill="none" xmlns="http://www.w3.org/2000/svg">
<g clip-path="url(#clip0)">
<path d="M20 8.24999H16.6039L13.0359 2.30334C12.8589 2.00795 12.475 1.9115 12.1784 2.08912C11.8824 2.26674 11.7865 2.65062 11.9642 2.94665L15.1462 8.24999H4.85389L8.03588 2.94661C8.2135 2.65058 8.11769 2.26669 7.82166 2.08908C7.52441 1.91146 7.14174 2.00791 6.96412 2.3033L3.39618 8.24995H0V9.49996H1.35651L2.94433 17.9698C3.11033 18.8567 3.88548 19.5 4.78761 19.5H15.2124C16.1145 19.5 16.8897 18.8567 17.0551 17.9704L18.6434 9.49996H20C20 9.49996 20 8.24999 20 8.24999ZM15.8264 17.7403C15.7715 18.0357 15.5133 18.25 15.2124 18.25H4.78761C4.48671 18.25 4.22855 18.0358 4.173 17.7398L2.62789 9.49996H17.3721L15.8264 17.7403Z" fill="#363636"/>
</g>
<defs>
<clipPath id="clip0">
<rect width="20" height="20" fill="white"/>
</clipPath>
</defs>
</svg>
