<svg width="20" height="20" viewBox="0 0 20 20" xmlns="http://www.w3.org/2000/svg">
<g clip-path="url(#clip0)">
<path d="M20 7.49999H16.6039L13.0359 1.55334C12.8589 1.25795 12.475 1.1615 12.1784 1.33912C11.8824 1.51674 11.7865 1.90062 11.9642 2.19665L15.1462 7.49999H4.85389L8.03588 2.19661C8.2135 1.90058 8.11769 1.51669 7.82166 1.33908C7.52441 1.16146 7.14174 1.25791 6.96412 1.5533L3.39618 7.49995H0V8.74996H1.35651L2.94433 17.2198C3.11033 18.1067 3.88548 18.75 4.78761 18.75H15.2124C16.1145 18.75 16.8897 18.1067 17.0551 17.2204L18.6434 8.74996H20C20 8.74996 20 7.49999 20 7.49999ZM15.8264 16.9903C15.7715 17.2857 15.5133 17.5 15.2124 17.5H4.78761C4.48671 17.5 4.22855 17.2858 4.173 16.9898L2.62789 8.74996H17.3721L15.8264 16.9903Z"/>
</g>
<defs>
<clipPath id="clip0">
<rect width="20" height="20"/>
</clipPath>
</defs>
</svg>
