<svg width="25" height="25" viewBox="0 0 25 25" fill="none" xmlns="http://www.w3.org/2000/svg">
<path d="M12.2711 6.08843L9.53674 3.35405C9.23206 3.04897 8.73674 3.04897 8.43206 3.35405L5.69768 6.08843C5.3926 6.39351 5.3926 6.88804 5.69768 7.19311C6.00237 7.49819 6.49768 7.49819 6.80237 7.19311L8.20315 5.79233V21.0939C8.20315 21.5251 8.55315 21.8751 8.9844 21.8751C9.41565 21.8751 9.76565 21.5251 9.76565 21.0939V5.79233L11.1664 7.19311C11.3188 7.34585 11.5188 7.42202 11.7188 7.42202C11.9188 7.42202 12.1188 7.34585 12.2711 7.19311C12.5762 6.88804 12.5762 6.39351 12.2711 6.08843Z" fill="#16B0A7"/>
<path d="M19.3024 17.807C18.9973 17.502 18.5027 17.502 18.1977 17.807L16.7969 19.2078V3.90625C16.7969 3.475 16.4469 3.125 16.0156 3.125C15.5844 3.125 15.2344 3.475 15.2344 3.90625V19.2078L13.8336 17.807C13.5285 17.502 13.0336 17.502 12.7289 17.807C12.4239 18.1121 12.4239 18.6066 12.7289 18.9117L15.4633 21.6461C15.616 21.7988 15.8156 21.875 16.0156 21.875C16.2156 21.875 16.4153 21.7988 16.568 21.6461L19.3024 18.9117C19.6074 18.6066 19.6074 18.1121 19.3024 17.807Z" fill="#16B0A7"/>
</svg>
