<svg width="25" height="16" viewBox="0 0 25 16" xmlns="http://www.w3.org/2000/svg">
<path d="M15.3199 0.250388C16.0177 0.356957 16.701 0.546261 17.3762 0.770358C18.5548 1.16239 19.667 1.70702 20.713 2.41355C20.7858 2.46232 20.883 2.49327 20.9687 2.49327C22.1973 2.49875 23.4254 2.49683 24.653 2.49793C24.752 2.49793 24.8504 2.50916 24.949 2.51519C24.949 2.54122 24.9526 2.55217 24.9485 2.5582C24.8912 2.65354 24.8331 2.7475 24.7755 2.84257C24.3588 3.53294 24.0027 4.25509 23.7924 5.0534C23.7696 5.13915 23.7648 5.21092 23.8186 5.29503C24.9123 6.99137 25.2613 8.85373 24.8042 10.8613C24.4035 12.622 23.4691 13.9948 22.0492 14.9668C21.0344 15.6618 19.9133 15.9928 18.7156 15.9999C18.2124 16.0032 17.7117 15.93 17.2202 15.7925C16.0225 15.4569 14.9958 14.812 14.1496 13.8354C14.038 13.7071 13.933 13.5732 13.8141 13.4283C13.3666 14.1485 12.9263 14.8569 12.4754 15.584C12.0262 14.8591 11.5919 14.1575 11.1587 13.4587C11.1288 13.4757 11.1202 13.4776 11.1143 13.4836C11.1044 13.4924 11.0961 13.503 11.0882 13.5132C10.0648 14.8186 8.77732 15.6188 7.20882 15.8865C6.3363 16.0358 5.47216 15.9821 4.62475 15.7298C3.42377 15.3734 2.40313 14.689 1.57856 13.6792C0.772748 12.6919 0.271559 11.5456 0.0833594 10.2424C-0.131979 9.02605 0.130282 7.85324 0.195721 7.5686C0.385442 6.74125 0.716187 5.98157 1.1702 5.28298C1.20216 5.23339 1.21332 5.14572 1.1981 5.08655C1.01294 4.35317 0.693867 3.68608 0.320257 3.04721C0.225397 2.88476 0.111767 2.73435 0.00676063 2.57847C0.00676063 2.56067 0.00676063 2.54231 0.00676063 2.52423C0.0278126 2.52697 0.0486109 2.53135 0.0691556 2.53135C1.32619 2.5319 2.58296 2.53245 3.83999 2.52971C3.89478 2.52971 3.95565 2.50533 4.00232 2.473C4.88549 1.86098 5.82649 1.37608 6.81517 0.998564C7.52815 0.726799 8.25609 0.514756 8.99849 0.359423C9.7173 0.209294 10.4399 0.103547 11.1701 0.0514954C12.9504 -0.0964413 14.3733 0.107109 15.3199 0.250388ZM13.7441 9.21727C13.7441 12.1987 15.9837 14.6345 18.7341 14.623C21.495 14.6123 23.7245 12.245 23.7224 9.23069C23.7204 6.1243 21.3874 3.78909 18.6271 3.84963C15.902 3.91072 13.7689 6.28319 13.7441 9.21727ZM6.25894 3.82909C3.57393 3.80388 1.23285 6.22429 1.27977 9.3074C1.3234 12.1826 3.51737 14.62 6.31474 14.5939C9.04998 14.5687 11.2485 12.1563 11.2536 9.2348C11.2579 6.23333 9.03248 3.82909 6.25894 3.82909ZM6.50649 2.42259C8.02325 2.52259 9.35561 3.09351 10.4813 4.1992C11.6046 5.3027 12.2628 6.67933 12.502 8.29814C12.748 6.69851 13.389 5.33475 14.4913 4.24221C15.5954 3.14858 16.91 2.57464 18.4019 2.45327C16.6315 1.60319 14.7647 1.24211 12.8431 1.20211C10.6593 1.15582 8.53509 1.50347 6.50649 2.42259Z"/>
<path d="M18.7234 5.81579C20.4317 5.81278 21.8153 7.29927 21.8153 9.14245C21.8153 10.9928 20.4553 12.4231 18.8507 12.4891C17.0588 12.5633 15.625 11.0212 15.6255 9.15067C15.627 7.25872 17.071 5.78456 18.7234 5.81579ZM20.7383 9.15067C20.7376 7.948 19.8374 6.97052 18.7315 6.97052C17.613 6.97052 16.7024 7.94279 16.6979 9.1419C16.6938 10.3358 17.6089 11.3292 18.7171 11.3325C19.827 11.3371 20.7388 10.3511 20.7383 9.15067Z"/>
<path d="M6.19255 5.81582C7.89979 5.8139 9.28541 7.30313 9.2811 9.14603C9.27628 11.0114 7.915 12.4105 6.33864 12.488C4.53959 12.5768 3.08802 11.0278 3.09131 9.14713C3.09487 7.24176 4.54872 5.78404 6.19255 5.81582ZM8.20517 9.1433C8.20187 7.93323 7.29587 6.96863 6.1649 6.97082C5.074 6.97301 4.15989 7.96747 4.16243 9.15014C4.16522 10.3465 5.07832 11.3303 6.1895 11.3336C7.29384 11.3363 8.20796 10.343 8.20517 9.1433Z"/>
<path d="M18.7247 8.0437C19.2908 8.04315 19.755 8.54477 19.7497 9.15268C19.7441 9.76196 19.2878 10.2556 18.7311 10.2559C18.1578 10.2559 17.697 9.76661 17.6982 9.16035C17.6993 8.53134 18.1469 8.04425 18.7247 8.0437Z"/>
<path d="M6.18715 8.03381C6.76189 8.03327 7.22377 8.52913 7.22605 9.148C7.22833 9.76166 6.76215 10.2655 6.19019 10.2668C5.60454 10.2682 5.15281 9.77947 5.15332 9.14361C5.15332 8.51927 5.60404 8.03464 6.18715 8.03381Z"/>
</svg>
