<svg width="30" height="22" viewBox="0 0 30 22" fill="none" xmlns="http://www.w3.org/2000/svg">
<g id="Visa">
<g id="Visa_2">
<rect id="Rectangle" width="30" height="22" rx="3" fill="#00579F"/>
<g id="Group">
<path id="polygon9" d="M13.4803 14.8057H11.6333L12.7885 7.21875H14.6354L13.4803 14.8057Z" fill="white"/>
<path id="path11" d="M20.1756 7.4043C19.8113 7.25079 19.2335 7.0813 18.519 7.0813C16.6951 7.0813 15.4107 8.11436 15.4028 9.59132C15.3877 10.681 16.3224 11.2863 17.0215 11.6496C17.7361 12.0209 17.979 12.2632 17.979 12.5942C17.9717 13.1024 17.4016 13.3367 16.8698 13.3367C16.1325 13.3367 15.7373 13.2159 15.1369 12.9331L14.8937 12.8119L14.6353 14.515C15.0684 14.7246 15.8665 14.9106 16.6951 14.9188C18.6331 14.9188 19.8947 13.9017 19.9097 12.3278C19.9171 11.4641 19.4235 10.8023 18.3594 10.2616C17.7134 9.91443 17.3178 9.68035 17.3178 9.32517C17.3253 9.00227 17.6524 8.67154 18.3816 8.67154C18.982 8.65534 19.4232 8.80864 19.7574 8.96204L19.9244 9.0426L20.1756 7.4043Z" fill="white"/>
<path id="path13" d="M22.63 12.1179C22.7821 11.682 23.3674 9.99513 23.3674 9.99513C23.3597 10.0113 23.5192 9.55123 23.6104 9.26877L23.7395 9.92251C23.7395 9.92251 24.0892 11.7386 24.1652 12.1179C23.8765 12.1179 22.9948 12.1179 22.63 12.1179ZM24.9098 7.21875H23.4812C23.0407 7.21875 22.706 7.35585 22.5159 7.84824L19.7725 14.8055H21.7104C21.7104 14.8055 22.0295 13.8691 22.0981 13.6675C22.3107 13.6675 24.1959 13.6675 24.4694 13.6675C24.5224 13.9338 24.6898 14.8055 24.6898 14.8055H26.3999L24.9098 7.21875Z" fill="white"/>
<path id="path15" d="M10.0903 7.21875L8.28147 12.3923L8.08382 11.343C7.74941 10.1323 6.70064 8.81693 5.53027 8.16288L7.18705 14.7976H9.14016L12.0433 7.21875H10.0903Z" fill="white"/>
<path id="path17" d="M6.60207 7.21875H3.6305L3.6001 7.37205C5.91811 8.00164 7.45329 9.51926 8.08402 11.3434L7.43804 7.8565C7.33169 7.37194 7.00486 7.23473 6.60207 7.21875Z" fill="#FAA61A"/>
</g>
</g>
</g>
</svg>
