<?xml version="1.0" encoding="utf-8"?><svg viewBox="0 0 183 167" xmlns="http://www.w3.org/2000/svg" xmlns:xlink="http://www.w3.org/1999/xlink"><style>:root>svg{display:none}:root>svg:target{display:block}</style><svg fill="none" viewBox="0 0 25 25" id="ask-icon" xmlns="http://www.w3.org/2000/svg"><path d="M12.117 16.759c-.715 0-1.293.596-1.293 1.31 0 .698.561 1.31 1.293 1.31.732 0 1.31-.612 1.31-1.31 0-.714-.595-1.31-1.31-1.31zM12.338 6.836c-2.297 0-3.353 1.362-3.353 2.28 0 .665.562.97 1.022.97.919 0 .544-1.31 2.28-1.31.851 0 1.532.375 1.532 1.158 0 .919-.953 1.446-1.515 1.923-.493.426-1.14 1.123-1.14 2.587 0 .885.238 1.14.936 1.14.834 0 1.004-.374 1.004-.697 0-.886.017-1.396.953-2.128.46-.357 1.907-1.515 1.907-3.115 0-1.6-1.447-2.808-3.626-2.808z" fill="#FAFAFA"/><path d="M12.5 0C5.592 0 0 5.59 0 12.5v11.523c0 .54.437.977.977.977H12.5C19.408 25 25 19.41 25 12.5 25 5.592 19.41 0 12.5 0zm0 23.047H1.953V12.5A10.541 10.541 0 0112.5 1.953 10.541 10.541 0 0123.047 12.5 10.541 10.541 0 0112.5 23.047z" fill="#FAFAFA"/></svg><svg fill="none" viewBox="0 0 25 25" id="ask-icon-grey" xmlns="http://www.w3.org/2000/svg"><path d="M12.117 16.759c-.715 0-1.293.596-1.293 1.31 0 .698.561 1.31 1.293 1.31.732 0 1.31-.612 1.31-1.31 0-.714-.595-1.31-1.31-1.31zM12.338 6.836c-2.297 0-3.353 1.362-3.353 2.28 0 .665.562.97 1.022.97.919 0 .544-1.31 2.28-1.31.851 0 1.532.375 1.532 1.158 0 .919-.953 1.446-1.515 1.923-.493.426-1.14 1.123-1.14 2.587 0 .885.238 1.14.936 1.14.834 0 1.004-.374 1.004-.697 0-.886.017-1.396.953-2.128.46-.357 1.907-1.515 1.907-3.115 0-1.6-1.447-2.808-3.626-2.808z" fill="#363636"/><path d="M12.5 0C5.592 0 0 5.59 0 12.5v11.523c0 .54.437.977.977.977H12.5C19.408 25 25 19.41 25 12.5 25 5.592 19.41 0 12.5 0zm0 23.047H1.953V12.5A10.541 10.541 0 0112.5 1.953 10.541 10.541 0 0123.047 12.5 10.541 10.541 0 0112.5 23.047z" fill="#363636"/></svg><svg fill="none" viewBox="0 0 10 15" id="general-pagination-arr" xmlns="http://www.w3.org/2000/svg"><path d="M8.393 7.687L1.129 1.444a.5.5 0 010-.782.72.72 0 01.91 0l7.718 6.634a.5.5 0 010 .782l-7.719 6.635a.72.72 0 01-.91-.014.499.499 0 010-.768l7.265-6.244z" fill="#909198"/></svg><svg fill="none" viewBox="0 0 54 50" id="header-logo" xmlns="http://www.w3.org/2000/svg"><path d="M27.035 50l-.577-.63a290.1 290.1 0 01-4.062-4.51l1.157-1.11a263.99 263.99 0 003.464 3.855c.451-.505.899-1.002 1.343-1.495.715-.795 1.42-1.577 2.11-2.362l1.157 1.111c-.695.79-1.403 1.577-2.123 2.376-.627.696-1.262 1.4-1.902 2.123l-.567.642zm15.538-20.897l-1.412-.716a34.557 34.557 0 001.74-4.55c2.112-6.966-.386-14.6-6.215-18.993C30.914.5 22.86.576 17.103 5.03c-5.808 4.485-8.17 12.148-5.88 19.068a40.428 40.428 0 001.702 4.29l-1.414.716a42.107 42.107 0 01-1.774-4.469c-2.516-7.603.068-16.012 6.431-20.924 6.301-4.873 15.115-4.953 21.435-.197 6.381 4.81 9.112 13.177 6.795 20.82a36.251 36.251 0 01-1.825 4.77zM.938 30.572v4.879h2.625v-4.879h.939V41.3h-.939v-4.88H.938v4.88H0V30.572h.938zM5.642 32.373c0-.563.162-1.015.487-1.354.324-.34.756-.509 1.294-.509H8.48c.538 0 .97.17 1.295.509.324.34.486.79.486 1.354v7.125c0 .563-.162 1.014-.486 1.353-.325.34-.756.51-1.295.51H7.423c-.538 0-.97-.17-1.294-.51-.325-.339-.487-.79-.487-1.353v-7.125zM7.41 40.38h1.08c.254 0 .456-.079.606-.236.15-.158.226-.369.226-.634v-7.15c0-.266-.075-.476-.226-.634-.15-.157-.352-.236-.606-.236h-1.08c-.254 0-.455.078-.606.236-.15.157-.226.368-.226.633v7.151c0 .265.075.476.226.634.15.156.352.235.606.235zM11.294 32.373c0-.563.162-1.015.487-1.354.325-.34.756-.509 1.295-.509h1.056c.538 0 .97.17 1.295.509.325.34.487.79.487 1.354v7.125c0 .563-.162 1.014-.487 1.353-.325.34-.756.51-1.295.51h-1.056c-.54 0-.97-.17-1.295-.51-.325-.339-.487-.79-.487-1.353v-7.125zm1.77 8.008h1.08c.254 0 .456-.079.607-.236.15-.158.226-.369.226-.634v-7.15c0-.266-.075-.476-.226-.634-.151-.157-.353-.236-.606-.236h-1.08c-.254 0-.456.078-.607.236-.15.157-.226.368-.226.633v7.151c0 .265.075.476.226.634.15.156.353.235.606.235zM17.873 30.572v5.76l2.256-5.04c.11-.24.273-.43.487-.571.215-.14.448-.211.701-.211h.297l-2.197 4.543 2.257 6.246h-1.01l-1.804-5.09-.986 2.036v3.054h-.938V30.572h.937zM24.275 31.43c.047-.256.162-.464.345-.62a.965.965 0 01.653-.237h.332L27.648 41.3h-.998l-.463-2.47h-2.34l-.463 2.47H22.4l1.876-9.87zm1.769 6.417l-1.021-5.537-1.034 5.537h2.055zM29.417 30.572v4.879h2.625v-4.879h.938V41.3h-.938v-4.88h-2.625v4.88h-.938V30.572h.938zM36.364 30.512h.487c.285 0 .532.09.742.267.21.177.342.411.398.702l1.52 8.02 1.556-8.256a.885.885 0 01.297-.527.829.829 0 01.558-.205h.724V41.3h-.938v-8.666l-1.65 8.666h-1.105l-1.65-8.666V41.3h-.939V30.512zM45.294 31.43c.047-.256.163-.464.345-.62a.965.965 0 01.653-.237h.333L48.667 41.3h-.997l-.463-2.47h-2.34l-.463 2.47h-.985l1.875-9.87zm1.77 6.417l-1.02-5.537-1.034 5.537h2.055zM52.218 30.572c.538 0 .97.17 1.295.51.325.339.487.79.487 1.353v2.122c0 .563-.162 1.014-.487 1.354-.325.339-.756.509-1.295.509h-1.781v4.88h-.939V30.571h2.72zm-1.781 4.88h1.793c.253 0 .455-.079.606-.236.15-.157.226-.369.226-.634V32.41c0-.265-.075-.476-.226-.634-.15-.158-.353-.236-.606-.236h-1.793v3.912z" fill="#363636"/><path d="M24.273 8.913c.055-.03.1-.02.141-.02.577 0 1.153.003 1.73.002.04 0 .099.033.116-.043.014-.066-.026-.089-.074-.117-.202-.119-.36-.48-.323-.717.006-.035.02-.05.05-.052l.082-.002c.186-.001.185-.001.216-.193.016-.101.079-.163.175-.165.269-.005.538-.005.807 0 .116.002.187.087.181.222-.005.112.027.146.136.142.227-.008.231-.002.196.236-.033.23-.117.432-.33.544-.046.024-.064.055-.056.105.01.063.059.043.093.044.59.002 1.177.002 1.766.005.037 0 .087-.02.11.015.023.038-.019.074-.038.107-.296.52-.716.816-1.313.788-.112-.005-.226 0-.34-.004-.07-.003-.103.026-.093.1.012.097-.028.122-.117.12-.187-.007-.206.03-.12.209a.805.805 0 00.101.147c.323.396.379.826.16 1.294-.074.16-.168.312-.222.484-.013.042-.03.084-.041.127-.074.3-.045.33.239.263.75-.175 1.512-.27 2.28-.306.402-.02.799-.076 1.174-.246.723-.328.898-.928.91-1.59.001-.053-.028-.068-.063-.088-.18-.103-.187-.22-.014-.33.08-.051.094-.124.086-.209-.007-.07-.039-.131-.067-.194-.075-.158-.08-.313.023-.46.073-.104.06-.213.002-.31a.42.42 0 01-.002-.479c.068-.11.064-.228-.015-.342-.081-.119-.081-.251-.029-.384.08-.196.185-.384.17-.61-.003-.047.03-.077.073-.077.044 0 .077.03.074.077-.014.226.09.415.17.61.054.133.054.266-.028.384a.302.302 0 00-.01.353.405.405 0 010 .456.303.303 0 00.012.354c.088.127.078.268.017.406-.03.066-.066.13-.076.204-.014.095.003.172.093.227.16.098.155.228-.012.317-.06.031-.075.066-.075.13a2.57 2.57 0 01-.08.641c-.183.745-.677 1.152-1.355 1.356-.386.115-.781.147-1.179.167-.702.035-1.394.146-2.08.304-.029.007-.058.018-.095.03.1.17.18.341.205.534.034.263-.018.51-.122.748-.05.114-.1.23-.152.343-.17.366-.109.706.11 1.023.175.255.12.262.341.022.137-.15.227-.329.264-.535.006-.033.009-.08.036-.086.135-.035.226-.184.38-.165.048.006.075 0 .084-.052.002-.008.008-.014.012-.021.016-.03.044-.067.068-.06.15.048.214-.169.355-.12.063.021.098 0 .142-.04.562-.528 1.206-.884 1.962-.978.975-.12 1.868.07 2.571.849.497.55.745 1.225.822 1.968.225 2.145-.963 4.095-2.85 4.991-.818.389-1.681.617-2.555.807-.213.046-.428.082-.643.123.001.054.034.087.056.124.214.345.431.687.643 1.034.215.351.401.717.473 1.134.087.511-.111.899-.57 1.1a1.79 1.79 0 01-.73.151h-3.04c-.24 0-.473-.045-.696-.136-.503-.206-.712-.617-.599-1.169.088-.43.29-.805.517-1.168.19-.307.381-.614.575-.92.05-.079.065-.115-.05-.136-.655-.12-1.276-.336-1.834-.723-.88-.608-1.343-1.475-1.391-2.565-.066-1.519.326-2.893 1.294-4.055.641-.77 1.448-1.304 2.334-1.714a8.49 8.49 0 01.64-.266.365.365 0 00.221-.229c.113-.28.029-.535-.085-.786-.044-.096-.096-.187-.142-.281-.224-.475-.172-.914.16-1.314a.56.56 0 00.132-.254c.015-.072 0-.11-.08-.1-.03.004-.062-.003-.093.001-.08.011-.117-.022-.103-.108.015-.094-.024-.117-.11-.116-.215.004-.432.016-.643-.01-.399-.052-.676-.31-.903-.637-.048-.07-.09-.153-.142-.24zm3.598 6.717a.042.042 0 01.038-.026l.025-.042c.128-.114.242-.242.333-.39.025-.039.076-.092.006-.133-.066-.04-.119.002-.137.066-.045.164-.146.295-.22.443-.023.015-.024.033-.008.055-.006.02-.02.027-.038.024-.003.002-.006.002-.009.002l.005-.006.005.008zm.703-.638l.004.004a.02.02 0 00-.004-.006l-.002-.003.002.005zM25.2 9.64c.007-.017.002-.028-.016-.033-.065-.099-.148-.186-.19-.304-.03-.081-.025-.112.07-.116.405-.02.809-.045 1.212-.069l1.41-.082v-.004h-3.09c.128.245.359.479.577.588l.029.02.008.006.007-.001-.017-.005zm3.606 5.186h.005c-.002-.002-.005-.002-.007-.003-.014-.063-.062-.074-.113-.08-.021-.002-.038.011-.043.032-.006.02-.008.042.01.055.023.02.03-.01.044-.02.039-.028.072-.005.104.016zm-2.546-6.172c0 .002 0 .004.002.006v-.005c-.027-.049-.059-.096-.083-.147-.105-.214-.068-.303.158-.35.154-.033.312-.05.468-.073v-.033c-.2 0-.399.004-.599 0-.255-.007-.268.002-.196.262.04.145.09.288.25.34zm-.315 4.76c-.2.067-.391.16-.581.255-.834.412-1.587.942-2.165 1.705-.82 1.08-1.141 2.334-1.07 3.691.053 1.001.513 1.777 1.34 2.302.55.349 1.155.523 1.78.634.061.011.093-.011.12-.065.095-.183.196-.362.288-.546.213-.427.384-.871.462-1.35.114-.704-.004-1.386-.163-2.066-.01-.045-.03-.064-.073-.08-.145-.049-.202-.129-.204-.287a.263.263 0 00-.057-.165.97.97 0 01-.21-.633c.011-.318.167-.561.37-.779a2.68 2.68 0 00.437-.585.908.908 0 00.046-.799 18.48 18.48 0 00-.162-.378c-.118-.264-.18-.537-.135-.83l-.004-.03c-.006 0-.012.003-.02.006zm1.473 6.02c-.003.25.018.497.069.74.126.627.406 1.184.707 1.733.037.066.082.059.138.05a12.79 12.79 0 002.66-.685c1.095-.415 2.003-1.093 2.598-2.159.631-1.13.802-2.329.36-3.577-.253-.712-.703-1.257-1.414-1.492-1.202-.396-2.264-.096-3.197.766-.045.041-.065.082-.052.148.01.052 0 .125-.048.14-.097.028-.11.14-.163.176-.114.075-.183.175-.26.28-.031.042-.092.062-.122.12-.023.045-.072.06-.12.066-.23.027-.433.128-.627.253-.082.053-.101.085-.03.178.334.424.339.862.024 1.292a.232.232 0 00-.041.146c-.003.154-.058.238-.195.28-.05.016-.072.04-.082.087-.11.48-.205.963-.205 1.459zm-.212 6.125a7.759 7.759 0 01-.79-.061c-.38-.051-.753-.126-1.098-.315-.298-.165-.44-.422-.445-.772-.009-.464.148-.877.342-1.28.021-.045.064-.083.047-.165-.093.128-.18.242-.261.36-.249.354-.51.701-.686 1.104-.155.355-.054.69.262.9.205.135.434.2.67.24.653.112 1.305.067 1.959-.01zm-.78-12.522c-.04-.002-.049.024-.063.041-.28.335-.321.72-.083 1.127.363.623.284 1.357-.23 1.897-.1.104-.2.206-.274.333-.099.168-.155.345-.107.546.035.146.136.223.261.198.152-.03.183-.076.157-.262a1.054 1.054 0 01.086-.618c.085-.175.16-.352.23-.533.225-.591.27-1.179-.005-1.772-.113-.245-.139-.507-.015-.766.026-.057.055-.117.043-.19zm-.012-2.567c-.246.278-.361.578-.24.936.106.315.266.611.321.977a.569.569 0 00.04-.23 2.047 2.047 0 00-.138-.688c-.105-.28-.139-.556.002-.835a.174.174 0 00.015-.16zm-.09 8.538c.03-.185.026-.367.015-.55-.014-.204.027-.267.222-.313.24-.056.486-.057.732-.037.067.005.085.037.082.1-.004.076 0 .151 0 .228.037-.105.055-.21.077-.313.015-.07-.007-.092-.075-.092-.378.003-.755.003-1.132 0-.08 0-.09.032-.074.104.065.289.115.58.153.873zm2.546 4.521c-.008.022-.011.027-.01.03.166.41.277.834.302 1.281.003.05.031.069.075.078.127.027.178-.035.148-.202-.075-.433-.287-.802-.515-1.187zm3.126-15.384c.029-.161-.094-.323-.044-.501.002-.008-.008-.025-.017-.029-.023-.01-.034.01-.045.026a.25.25 0 00-.003.296c.115.165.098.325.006.489-.057.1-.062.196-.003.298.098.166.113.334-.004.5-.047.068-.049.145-.032.223.007.035.017.077.067.061.037-.012.04-.041.03-.078a.304.304 0 010-.181c.069-.204.057-.408.004-.612a.35.35 0 01.005-.214.75.75 0 00.036-.278zm-5.934 9.562c.018-.099-.012-.148-.114-.134-.057.008-.13-.023-.121.089.008.106.07.176.167.175.1 0 .058-.081.068-.13zm.752-10.042c-.456-.024-.514-.005-.528.17.17-.087.35-.132.528-.17zm5.279 2.345c-.118-.003-.211.004-.293.057-.085.054-.085.123-.004.18.029.02.059.037.095.037-.048-.16-.048-.16.202-.274zm-4.867-1.305c.183-.038.27-.146.337-.277.02-.039.02-.083-.033-.097-.043-.01-.074.015-.072.056.007.157-.1.225-.232.318zm-1.064 9c.021.035-.04.125.046.124.072 0 .033-.083.041-.13.005-.022 0-.048 0-.072.001-.035-.015-.05-.049-.05-.031 0-.037.02-.037.047l-.001.082zm2.357-2.755c-.046-.055-.1-.098-.16-.052-.042.033-.025.086.02.125.019-.086.076-.082.14-.073zm.33 8.558l-.006-.008c-.002.002-.007.004-.007.006s.003.005.005.007l.007-.005z" fill="#363636"/></svg><svg fill="none" viewBox="0 0 20 20" id="heart-icon" xmlns="http://www.w3.org/2000/svg"><path d="M18.54 2.901a5.068 5.068 0 00-3.852-1.736c-2.108 0-3.442 1.26-4.19 2.315-.194.274-.36.549-.498.807a7.66 7.66 0 00-.498-.807c-.748-1.056-2.082-2.315-4.19-2.315A5.068 5.068 0 001.46 2.901C.52 3.97 0 5.4 0 6.928c0 1.664.65 3.212 2.045 4.87 1.246 1.484 3.04 3.012 5.117 4.782.774.66 1.574 1.342 2.426 2.087l.026.022a.585.585 0 00.772 0l.026-.022c.852-.745 1.652-1.427 2.426-2.087 2.077-1.77 3.87-3.298 5.117-4.781C19.35 10.139 20 8.592 20 6.928c0-1.53-.518-2.96-1.46-4.027zm-6.462 12.787c-.667.569-1.354 1.154-2.078 1.783a272.66 272.66 0 00-2.078-1.783c-4.065-3.464-6.75-5.752-6.75-8.76 0-1.244.414-2.398 1.166-3.252a3.911 3.911 0 012.974-1.339c1.607 0 2.646.99 3.234 1.82.528.745.803 1.496.897 1.784a.586.586 0 001.114 0c.094-.288.37-1.039.897-1.784.588-.83 1.627-1.82 3.233-1.82 1.158 0 2.214.476 2.975 1.339.752.854 1.166 2.008 1.166 3.252 0 3.008-2.685 5.296-6.75 8.76z" fill="#16B0A7"/></svg><svg fill="none" viewBox="0 0 18 18" id="linkedin-icon" xmlns="http://www.w3.org/2000/svg"><path d="M2.194.995c.56 0 1 .177 1.318.529.32.351.49.795.513 1.327 0 .525-.179.968-.54 1.328-.36.359-.854.539-1.477.539h-.023c-.608 0-1.09-.18-1.45-.54A1.82 1.82 0 010 2.852c0-.54.196-.984.59-1.333.395-.349.93-.523 1.604-.523zM.236 6.192h3.848v10.812H.236V6.192zM18 10.805v6.199h-3.848v-5.782c0-.736-.15-1.325-.452-1.774-.299-.444-.8-.667-1.506-.667-.538 0-.97.136-1.293.41a2.46 2.46 0 00-.698.907c-.046.12-.075.252-.09.399a4.625 4.625 0 00-.022.467v6.04H6.219c.017-1.829.026-3.507.026-5.029V8.307c0-.532-.006-.986-.015-1.362-.005-.373-.01-.625-.01-.753h3.87v1.531l-.02.045h.02v-.045c.12-.188.275-.384.462-.59.19-.206.417-.398.693-.576a3.95 3.95 0 01.99-.438c.388-.116.83-.173 1.334-.173.626 0 1.211.095 1.757.287a3.604 3.604 0 011.41.9c.395.407.704.913.93 1.518.224.603.334 1.322.334 2.154z" fill="#fff"/></svg><svg fill="none" viewBox="0 0 183 167" id="main-logo" xmlns="http://www.w3.org/2000/svg"><path d="M91.619 167l-1.956-2.106c-5.185-5.587-9.511-10.285-13.765-15.063l3.922-3.706c3.681 4.135 7.421 8.216 11.737 12.877 1.53-1.687 3.047-3.347 4.55-4.993 2.425-2.656 4.811-5.268 7.155-7.891l3.918 3.713a967.669 967.669 0 01-7.196 7.934c-2.122 2.324-4.274 4.674-6.445 7.092L91.62 167zm52.658-69.795l-4.788-2.394c2.369-5.03 4.355-10.144 5.901-15.194 7.154-23.27-1.312-48.762-21.066-63.437-19.559-14.51-46.85-14.255-66.364.617-19.682 14.98-27.69 40.573-19.93 63.688a133.91 133.91 0 005.771 14.33l-4.791 2.39a139.486 139.486 0 01-6.012-14.926c-8.528-25.395.231-53.48 21.795-69.888 21.352-16.274 51.222-16.543 72.639-.657 21.626 16.066 30.88 44.01 23.029 69.54-1.621 5.301-3.704 10.66-6.184 15.931zM3.18 102.111v16.294h8.896v-16.294h3.18v35.828h-3.18v-16.298H3.18v16.298H0v-35.828h3.18zM19.12 108.124c0-1.878.55-3.387 1.65-4.52 1.1-1.134 2.561-1.701 4.387-1.701h3.58c1.823 0 3.288.567 4.388 1.701 1.1 1.133 1.65 2.639 1.65 4.52v23.799c0 1.881-.55 3.387-1.65 4.521-1.1 1.133-2.562 1.7-4.388 1.7h-3.58c-1.826 0-3.288-.567-4.388-1.7-1.1-1.134-1.65-2.64-1.65-4.521v-23.799zm5.995 26.747h3.661c.86 0 1.543-.262 2.054-.788.508-.527.765-1.231.765-2.116v-23.883c0-.886-.254-1.59-.765-2.116-.51-.523-1.194-.788-2.054-.788h-3.661c-.86 0-1.543.261-2.054.788-.511.526-.765 1.23-.765 2.116v23.883c0 .885.254 1.589.765 2.116.51.523 1.194.788 2.054.788zM38.274 108.124c0-1.878.55-3.387 1.65-4.52 1.1-1.134 2.562-1.701 4.388-1.701h3.58c1.823 0 3.288.567 4.388 1.701 1.1 1.133 1.65 2.639 1.65 4.52v23.799c0 1.881-.55 3.387-1.65 4.521-1.1 1.133-2.562 1.7-4.388 1.7h-3.58c-1.826 0-3.287-.567-4.387-1.7-1.1-1.134-1.65-2.64-1.65-4.521v-23.799zm6 26.747h3.66c.86 0 1.544-.262 2.055-.788.507-.527.765-1.231.765-2.116v-23.883c0-.886-.254-1.59-.765-2.116-.511-.523-1.195-.788-2.054-.788h-3.662c-.86 0-1.543.261-2.054.788-.51.526-.765 1.23-.765 2.116v23.883c0 .885.254 1.589.765 2.116.511.523 1.195.788 2.054.788zM60.57 102.111v19.239l7.646-16.834a4.475 4.475 0 011.65-1.908 4.282 4.282 0 012.376-.705h1.006l-7.447 15.175 7.649 20.861h-3.421l-6.116-17.002-3.34 6.801v10.201h-3.18v-35.828h3.177zM82.264 104.975c.16-.855.55-1.549 1.169-2.072.618-.526 1.354-.788 2.213-.788h1.126l6.923 35.825h-3.381l-1.57-8.253h-7.928l-1.57 8.253h-3.339l6.357-32.965zm5.996 21.435l-3.46-18.494-3.502 18.494h6.962zM99.691 102.111v16.294h8.896v-16.294h3.18v35.828h-3.18v-16.298h-8.896v16.298h-3.18v-35.828h3.18zM123.233 101.909h1.651c.966 0 1.803.299 2.516.892.709.594 1.158 1.375 1.347 2.344l5.153 26.787 5.273-27.575a2.938 2.938 0 011.005-1.76 2.832 2.832 0 011.892-.685h2.454v36.029h-3.18v-28.943l-5.592 28.943h-3.743l-5.595-28.943v28.943h-3.181v-36.032zM153.497 104.975c.16-.855.551-1.549 1.169-2.072.618-.526 1.354-.788 2.213-.788h1.126l6.924 35.825h-3.382l-1.569-8.253h-7.929l-1.569 8.253h-3.339l6.356-32.965zm5.999 21.435l-3.46-18.494-3.502 18.494h6.962zM176.962 102.111c1.823 0 3.288.567 4.388 1.7 1.1 1.134 1.65 2.639 1.65 4.521v7.089c0 1.881-.55 3.387-1.65 4.52-1.1 1.134-2.562 1.7-4.388 1.7h-6.038v16.298h-3.18v-35.828h9.218zm-6.038 16.298h6.077c.859 0 1.543-.262 2.054-.788.508-.523.765-1.231.765-2.116v-7.257c0-.885-.254-1.59-.765-2.116-.511-.527-1.195-.788-2.054-.788h-6.077v13.065z" fill="#FAFAFA"/><path d="M82.258 29.768c.189-.1.338-.067.478-.067 1.956.003 3.91.01 5.866.007.133 0 .332.11.39-.141.05-.221-.088-.299-.25-.393-.684-.395-1.221-1.602-1.094-2.394.02-.117.065-.168.17-.174.09-.004.185-.007.276-.007.631-.003.628-.003.732-.644.056-.338.267-.543.593-.55a74.166 74.166 0 012.734 0c.394.007.634.289.615.741-.016.373.091.487.459.473.771-.027.784-.006.667.788-.114.768-.397 1.446-1.12 1.818-.156.08-.218.184-.188.352.035.208.198.14.315.144 1.996.007 3.988.007 5.983.017.127 0 .296-.067.37.05.082.128-.06.248-.126.359-1.002 1.737-2.425 2.726-4.45 2.632-.38-.016-.764 0-1.148-.013-.241-.01-.352.087-.32.332.043.325-.094.41-.396.4-.632-.021-.697.103-.407.7.088.178.218.339.345.493 1.093 1.321 1.282 2.756.543 4.32-.254.536-.573 1.042-.755 1.615-.046.141-.104.282-.14.426-.25 1.003-.153 1.104.81.879 2.546-.587 5.124-.902 7.728-1.023 1.363-.064 2.708-.255 3.977-.822 2.451-1.096 3.043-3.098 3.086-5.311.003-.175-.095-.225-.215-.292-.609-.345-.631-.734-.046-1.103.274-.171.319-.413.29-.698-.023-.235-.13-.44-.228-.647-.254-.53-.267-1.046.082-1.54.244-.345.201-.71.003-1.035-.332-.544-.348-1.05-.007-1.597.231-.369.218-.76-.048-1.143-.277-.396-.277-.838-.098-1.281.267-.657.625-1.285.576-2.04-.01-.157.098-.257.247-.257.15 0 .261.1.251.258-.049.755.306 1.385.576 2.039.182.442.182.889-.094 1.28-.28.4-.27.796-.033 1.181.319.52.313 1.006-.003 1.523-.238.389-.234.781.042 1.18.296.426.264.895.056 1.358-.098.221-.222.436-.258.681-.045.319.01.573.316.758.54.328.524.761-.042 1.06-.199.103-.254.22-.254.435a8.478 8.478 0 01-.267 2.14c-.622 2.488-2.298 3.846-4.596 4.527-1.305.386-2.646.493-3.994.56-2.379.117-4.726.486-7.05 1.013-.097.023-.195.06-.322.1.342.57.612 1.14.697 1.784.114.879-.062 1.704-.414 2.499-.169.382-.338.768-.517 1.147-.573 1.22-.368 2.357.37 3.417.596.852.408.875 1.16.074.465-.5.768-1.1.895-1.788.02-.11.029-.265.12-.288.459-.118.768-.614 1.289-.55.163.02.254-.004.286-.175.007-.026.026-.047.04-.07.055-.097.15-.225.23-.201.505.16.726-.564 1.202-.403.215.074.332.004.481-.134 1.904-1.76 4.089-2.95 6.65-3.263 3.304-.402 6.331.235 8.713 2.834 1.683 1.838 2.523 4.091 2.787 6.576.761 7.163-3.265 13.675-9.661 16.67-2.77 1.298-5.696 2.059-8.658 2.693-.723.154-1.452.275-2.177.412.003.181.114.288.188.413.726 1.153 1.462 2.297 2.181 3.454.726 1.173 1.357 2.394 1.602 3.789.296 1.707-.378 3.001-1.934 3.672a6.142 6.142 0 01-2.47.506c-3.434.004-6.868.004-10.302 0-.814 0-1.605-.15-2.36-.456-1.705-.687-2.415-2.059-2.03-3.903.299-1.435.982-2.69 1.75-3.9.648-1.026 1.292-2.052 1.95-3.075.17-.262.221-.382-.173-.453-2.216-.402-4.322-1.123-6.213-2.414-2.978-2.033-4.55-4.927-4.713-8.568-.225-5.074 1.103-9.665 4.384-13.545 2.174-2.572 4.908-4.356 7.91-5.724a28.965 28.965 0 012.167-.889c.39-.14.602-.399.752-.764.384-.933.098-1.788-.29-2.626-.146-.319-.325-.624-.478-.939-.762-1.586-.586-3.052.543-4.386.212-.252.381-.517.446-.849.05-.241-.003-.369-.27-.335-.104.013-.211-.01-.316.003-.273.037-.397-.073-.351-.362.052-.312-.081-.389-.374-.386-.726.014-1.462.054-2.178-.036-1.35-.171-2.291-1.033-3.06-2.126-.162-.235-.305-.51-.481-.802zM94.45 52.206a.142.142 0 01.13-.087c.03-.047.055-.094.084-.141.433-.383.82-.808 1.13-1.301.085-.131.257-.309.02-.446-.225-.131-.404.006-.466.22-.153.547-.495.987-.742 1.48-.082.05-.085.11-.03.184-.019.067-.068.087-.13.08-.01.004-.02.004-.029.007.007-.006.01-.013.016-.02.01.01.013.017.017.024zm2.382-2.133l.013.013c-.003-.006-.006-.013-.013-.02l-.006-.01c.003 0 .01.02.006.017zm-11.43-17.874c.025-.057.006-.094-.053-.11-.221-.332-.501-.624-.648-1.016-.1-.272-.081-.376.241-.39 1.37-.063 2.74-.15 4.108-.227 1.591-.091 3.183-.185 4.775-.276v-.013H83.358c.433.818 1.214 1.6 1.953 1.965.032.02.065.044.098.064l.029.02c.006.003.016 0 .023-.003-.02-.007-.04-.01-.059-.014zm12.221 17.32c.007 0 .01 0 .017-.003-.007-.003-.017-.003-.023-.006-.05-.212-.212-.248-.384-.269-.072-.006-.127.037-.147.108-.02.063-.026.14.033.184.081.064.104-.037.15-.07.133-.09.243-.014.354.057zm-8.628-20.616l.006.02c0-.007.003-.013.003-.017-.094-.16-.202-.318-.283-.49-.358-.714-.231-1.012.534-1.17.524-.107 1.058-.164 1.588-.241v-.11c-.677 0-1.354.013-2.03-.004-.867-.02-.909.01-.665.878.137.483.306.963.847 1.134zM87.928 44.8c-.68.225-1.325.537-1.97.852-2.825 1.378-5.376 3.149-7.336 5.698-2.776 3.608-3.867 7.793-3.626 12.327.18 3.343 1.738 5.935 4.544 7.69 1.858 1.163 3.912 1.743 6.031 2.115.205.037.313-.037.407-.218.32-.61.66-1.207.973-1.82.723-1.43 1.302-2.911 1.566-4.511.387-2.35-.013-4.631-.55-6.901-.036-.151-.101-.215-.247-.265-.492-.165-.687-.433-.694-.96a.871.871 0 00-.192-.553c-.475-.617-.735-1.314-.71-2.112.037-1.063.564-1.875 1.25-2.603.564-.596 1.094-1.217 1.482-1.955.452-.865.54-1.75.156-2.666-.18-.422-.362-.845-.55-1.264-.397-.882-.609-1.794-.456-2.77-.003-.033-.01-.067-.013-.104-.02 0-.042.01-.065.02zm4.993 20.11c-.01.832.062 1.657.231 2.472.43 2.093 1.377 3.954 2.399 5.785.123.221.276.198.465.168 3.08-.45 6.09-1.198 9.013-2.287 3.714-1.385 6.79-3.652 8.808-7.21 2.138-3.773 2.718-7.78 1.217-11.948-.856-2.378-2.379-4.199-4.791-4.984-4.072-1.32-7.672-.322-10.832 2.559-.153.137-.222.275-.176.493.036.174 0 .42-.163.466-.329.097-.37.47-.553.59-.388.252-.622.584-.882.936-.104.14-.313.208-.414.399-.078.15-.244.201-.406.221-.778.09-1.465.43-2.123.845-.28.178-.345.285-.1.594 1.129 1.418 1.145 2.88.078 4.316-.118.157-.137.308-.14.49-.01.512-.196.794-.661.935-.17.05-.241.13-.277.288-.374 1.607-.693 3.216-.693 4.873zm-.72 20.457a26.677 26.677 0 01-2.678-.205c-1.286-.17-2.552-.42-3.72-1.053-1.01-.55-1.488-1.408-1.508-2.579-.029-1.549.502-2.927 1.16-4.275.07-.148.217-.275.159-.55-.316.43-.609.808-.886 1.2-.843 1.184-1.725 2.344-2.324 3.69-.527 1.186-.182 2.306.889 3.004.693.453 1.471.667 2.269.801 2.213.376 4.423.225 6.64-.033zM89.56 43.544c-.134-.007-.166.08-.215.137-.947 1.117-1.087 2.401-.28 3.763 1.23 2.082.963 4.534-.781 6.338-.336.345-.677.687-.928 1.11-.335.563-.524 1.153-.361 1.824.117.49.459.745.885.66.514-.1.618-.25.53-.874-.1-.721-.025-1.416.293-2.063a22.57 22.57 0 00.779-1.78c.761-1.976.917-3.937-.017-5.92-.384-.817-.472-1.693-.052-2.558.088-.191.186-.389.147-.637zm-.043-8.575c-.833.93-1.224 1.932-.814 3.126.362 1.053.902 2.042 1.09 3.266.121-.322.14-.543.134-.771a6.743 6.743 0 00-.465-2.298c-.358-.932-.472-1.857.006-2.79.075-.137.14-.291.05-.533zm-.302 28.518c.1-.617.087-1.228.048-1.835-.045-.684.091-.895.752-1.046.817-.188 1.647-.191 2.48-.124.228.017.29.12.28.332-.013.255-.003.506-.003.761.13-.349.189-.697.264-1.043.052-.238-.023-.308-.254-.308-1.28.01-2.558.01-3.838 0-.27-.004-.305.107-.25.345.221.966.39 1.938.52 2.918zm8.625 15.1c-.026.074-.036.09-.032.097.563 1.372.937 2.79 1.025 4.283.01.164.104.228.254.258.43.09.602-.117.5-.674-.253-1.445-.972-2.68-1.747-3.964zm10.595-51.384c.097-.537-.319-1.077-.15-1.674.006-.023-.026-.08-.055-.093-.078-.037-.118.033-.153.083-.228.329-.222.684-.01.99.387.553.332 1.086.019 1.633-.192.335-.211.657-.009.996.332.556.38 1.116-.013 1.673-.16.225-.166.483-.111.741.026.117.059.258.228.205.127-.04.137-.138.104-.262a1.01 1.01 0 010-.604c.231-.68.192-1.361.01-2.042a1.151 1.151 0 01.019-.717c.101-.279.13-.577.121-.93zM88.325 59.14c.062-.329-.042-.493-.387-.446-.192.026-.44-.078-.41.295.026.355.24.59.566.587.342-.004.198-.272.231-.436zM90.874 25.6c-1.546-.08-1.742-.017-1.79.57.579-.292 1.184-.443 1.79-.57zm17.888 7.833c-.4-.01-.716.014-.992.191-.287.182-.287.41-.013.6a.563.563 0 00.322.125c-.163-.533-.163-.533.683-.916zm-16.492-4.36c.618-.127.915-.485 1.142-.925.066-.127.066-.275-.114-.322-.143-.036-.25.05-.244.188.026.523-.338.751-.784 1.06zm-3.606 30.064c.071.114-.137.416.156.413.244-.004.11-.279.14-.433.016-.077 0-.16 0-.241.003-.118-.052-.168-.166-.168-.108 0-.127.067-.127.158-.004.077-.004.157-.004.271zm7.987-9.205c-.156-.184-.342-.325-.54-.174-.144.11-.088.288.068.419.062-.288.254-.275.472-.245zm1.116 28.585c-.006-.01-.013-.017-.02-.027-.006.007-.022.013-.022.02 0 .007.01.017.016.023.01-.003.017-.01.026-.016z" fill="#FAFAFA"/></svg><svg fill="none" viewBox="0 0 20 20" id="persone-icon" xmlns="http://www.w3.org/2000/svg"><g clip-path="url(#hclip0)" fill="#FAFAFA"><path d="M10 10c-2.757 0-5-2.243-5-5s2.243-5 5-5 5 2.243 5 5-2.243 5-5 5zm0-8.75A3.754 3.754 0 006.25 5 3.754 3.754 0 0010 8.75 3.754 3.754 0 0013.75 5 3.754 3.754 0 0010 1.25zM18.125 20H1.875a.625.625 0 01-.625-.625v-4.302c0-.646.33-1.253.861-1.585 4.694-2.928 11.088-2.927 15.777 0 .532.332.862.939.862 1.585v4.302c0 .346-.28.625-.625.625zM2.5 18.75h15v-3.677a.617.617 0 00-.274-.525c-4.291-2.68-10.158-2.681-14.453 0a.616.616 0 00-.273.525v3.677z"/></g><defs><clipPath id="hclip0"><path fill="#fff" d="M0 0h20v20H0z"/></clipPath></defs></svg><svg fill="none" viewBox="0 0 20 20" id="persone-icon-grey" xmlns="http://www.w3.org/2000/svg"><g clip-path="url(#iclip0)" fill="#363636"><path d="M10 12c-2.757 0-5-2.243-5-5s2.243-5 5-5 5 2.243 5 5-2.243 5-5 5zm0-8.75A3.754 3.754 0 006.25 7 3.754 3.754 0 0010 10.75 3.754 3.754 0 0013.75 7 3.754 3.754 0 0010 3.25zM18.125 22H1.875a.625.625 0 01-.625-.625v-4.302c0-.646.33-1.253.861-1.585 4.694-2.928 11.088-2.927 15.777 0 .532.332.862.939.862 1.585v4.302c0 .346-.28.625-.625.625zM2.5 20.75h15v-3.677a.617.617 0 00-.274-.525c-4.291-2.68-10.158-2.681-14.453 0a.616.616 0 00-.273.525v3.677z"/></g><defs><clipPath id="iclip0"><path fill="#fff" d="M0 0h20v20H0z"/></clipPath></defs></svg><svg fill="none" viewBox="0 0 20 20" id="rate-star-icon" xmlns="http://www.w3.org/2000/svg"><g clip-path="url(#jclip0)"><path d="M19.948 7.672a1.061 1.061 0 00-.915-.731l-5.773-.524-2.282-5.343a1.063 1.063 0 00-1.955.001L6.74 6.417.967 6.94A1.063 1.063 0 00.363 8.8l4.364 3.827-1.287 5.667a1.063 1.063 0 001.58 1.149L10 16.468l4.978 2.976a1.063 1.063 0 001.582-1.148l-1.287-5.668 4.363-3.826c.321-.281.444-.724.312-1.13z" fill="#16B0A7"/></g><defs><clipPath id="jclip0"><path fill="#fff" d="M0 0h20v20H0z"/></clipPath></defs></svg><svg fill="none" viewBox="0 0 20 20" id="shop-icon" xmlns="http://www.w3.org/2000/svg"><g clip-path="url(#kclip0)"><path d="M20 7.5h-3.396l-3.568-5.947a.625.625 0 00-1.072.644L15.146 7.5H4.854l3.182-5.303a.625.625 0 10-1.072-.644L3.396 7.5H0v1.25h1.357l1.587 8.47c.166.887.941 1.53 1.844 1.53h10.424c.902 0 1.678-.643 1.843-1.53l1.588-8.47H20V7.5zm-4.174 9.49a.624.624 0 01-.614.51H4.788c-.301 0-.56-.214-.615-.51L2.628 8.75h14.744l-1.546 8.24z" fill="#FAFAFA"/></g><defs><clipPath id="kclip0"><path fill="#fff" d="M0 0h20v20H0z"/></clipPath></defs></svg><svg fill="none" viewBox="0 0 20 20" id="shop-icon-grey" xmlns="http://www.w3.org/2000/svg"><g clip-path="url(#lclip0)"><path d="M20 8.25h-3.396l-3.568-5.947a.625.625 0 00-1.072.644l3.182 5.303H4.854l3.182-5.303a.625.625 0 10-1.072-.644L3.396 8.25H0V9.5h1.357l1.587 8.47c.166.887.941 1.53 1.844 1.53h10.424c.902 0 1.678-.643 1.843-1.53l1.588-8.47H20V8.25zm-4.174 9.49a.624.624 0 01-.614.51H4.788c-.301 0-.56-.214-.615-.51L2.628 9.5h14.744l-1.546 8.24z" fill="#363636"/></g><defs><clipPath id="lclip0"><path fill="#fff" d="M0 0h20v20H0z"/></clipPath></defs></svg></svg>